SplineFontDB: 3.0
FontName: Quantico-Bold
FullName: Quantico-Bold
FamilyName: Quantico
Weight: Bold
Copyright: Copyright (c) 2011 Matthew Desmond (http://www.madtype.com | mattdesmond@gmail.com), with Reserved Font Name "Quantico"
Version: 2.002
ItalicAngle: 0
UnderlinePosition: -50
UnderlineWidth: 50
Ascent: 800
Descent: 200
sfntRevision: 0x00020083
LayerCount: 2
Layer: 0 1 "Back"  1
Layer: 1 1 "Fore"  0
XUID: [1021 288 713564382 5898122]
FSType: 0
OS2Version: 2
OS2_WeightWidthSlopeOnly: 0
OS2_UseTypoMetrics: 1
CreationTime: 1323786007
ModificationTime: 1324066755
PfmFamily: 17
TTFWeight: 700
TTFWidth: 5
LineGap: 0
VLineGap: 0
Panose: 2 0 0 0 0 0 0 0 0 0
OS2TypoAscent: 263
OS2TypoAOffset: 1
OS2TypoDescent: -167
OS2TypoDOffset: 1
OS2TypoLinegap: 0
OS2WinAscent: 0
OS2WinAOffset: 1
OS2WinDescent: 0
OS2WinDOffset: 1
HheadAscent: 0
HheadAOffset: 1
HheadDescent: 0
HheadDOffset: 1
OS2SubXSize: 700
OS2SubYSize: 650
OS2SubXOff: 0
OS2SubYOff: 140
OS2SupXSize: 700
OS2SupYSize: 650
OS2SupXOff: 0
OS2SupYOff: 477
OS2StrikeYSize: 50
OS2StrikeYPos: 250
OS2Vendor: 'MADT'
OS2CodePages: 20000111.00000000
OS2UnicodeRanges: 8000002f.5000004a.00000000.00000000
Lookup: 258 0 0 "'kern' Horizontal Kerning in Latin lookup 0"  {"'kern' Horizontal Kerning in Latin lookup 0 subtable"  } ['kern' ('latn' <'dflt' > ) ]
MarkAttachClasses: 1
DEI: 91125
ShortTable: maxp 16
  1
  0
  268
  62
  7
  22
  3
  2
  0
  1
  1
  0
  64
  0
  2
  1
EndShort
LangName: 1033 "" "" "" "MADtype: Quantico Bold: 2011" "" "Version 2.002" "" "Quantico is a trademark of Matt Desmond." "MADtype" "Matt Desmond" "" "http://www.madtype.com" "http://www.madtype.com" "This Font Software is licensed under the SIL Open Font License, Version 1.1. This license is available with a FAQ at: http://scripts.sil.org/OFL" "http://scripts.sil.org/OFL" 
GaspTable: 1 65535 2
Encoding: UnicodeBmp
UnicodeInterp: none
NameList: Adobe Glyph List
DisplaySize: -36
AntiAlias: 1
FitToEm: 1
WinInfo: 34 34 13
BeginChars: 65546 268

StartChar: exclam
Encoding: 33 33 4
Width: 380
GlyphClass: 2
Flags: W
LayerCount: 2
Fore
SplineSet
95 0 m 1,0,-1
 95 190 l 1,1,-1
 285 190 l 1,2,-1
 285 0 l 1,3,-1
 95 0 l 1,0,-1
130 288 m 1,4,-1
 104 730 l 1,5,-1
 276 730 l 1,6,-1
 250 288 l 1,7,-1
 130 288 l 1,4,-1
EndSplineSet
EndChar

StartChar: quotedbl
Encoding: 34 34 5
Width: 500
GlyphClass: 2
Flags: W
LayerCount: 2
Fore
SplineSet
85 418 m 1,0,-1
 65 730 l 1,1,-1
 215 730 l 1,2,-1
 195 418 l 1,3,-1
 85 418 l 1,0,-1
305 418 m 1,4,-1
 285 730 l 1,5,-1
 435 730 l 1,6,-1
 415 418 l 1,7,-1
 305 418 l 1,4,-1
EndSplineSet
EndChar

StartChar: numbersign
Encoding: 35 35 6
Width: 764
GlyphClass: 2
Flags: W
LayerCount: 2
Fore
SplineSet
545 165 m 1,0,1
 538 72 538 72 529 -19 c 1,2,-1
 405 -19 l 1,3,-1
 422 165 l 1,4,-1
 297 165 l 1,5,-1
 281 -19 l 1,6,-1
 157 -19 l 1,7,-1
 173 165 l 1,8,-1
 55 165 l 1,9,-1
 55 267 l 1,10,-1
 182 267 l 1,11,12
 193 378 193 378 198 441 c 1,13,-1
 55 441 l 1,14,-1
 55 543 l 1,15,-1
 207 543 l 1,16,17
 222 700 222 700 223 719 c 1,18,-1
 347 719 l 1,19,-1
 331 543 l 1,20,-1
 455 543 l 1,21,-1
 472 719 l 1,22,-1
 595 719 l 1,23,-1
 579 543 l 1,24,-1
 709 543 l 1,25,-1
 709 441 l 1,26,-1
 570 441 l 1,27,28
 565 384 565 384 554 267 c 1,29,-1
 709 267 l 1,30,-1
 709 165 l 1,31,-1
 545 165 l 1,0,1
322 441 m 1,32,-1
 306 267 l 1,33,-1
 430 267 l 1,34,35
 440 369 440 369 447 441 c 1,36,-1
 322 441 l 1,32,-1
EndSplineSet
EndChar

StartChar: dollar
Encoding: 36 36 7
Width: 655
GlyphClass: 2
Flags: W
LayerCount: 2
Fore
SplineSet
391 -123 m 1,0,-1
 271 -123 l 1,1,-1
 271 -5 l 1,2,-1
 191 -5 l 1,3,-1
 75 62 l 1,4,-1
 75 195 l 1,5,-1
 215 195 l 1,6,-1
 215 115 l 1,7,-1
 430 115 l 1,8,-1
 430 288 l 1,9,-1
 201 288 l 1,10,-1
 85 355 l 1,11,-1
 85 638 l 1,12,-1
 201 705 l 1,13,-1
 271 705 l 1,14,-1
 271 823 l 1,15,-1
 391 823 l 1,16,-1
 391 705 l 1,17,-1
 454 705 l 1,18,-1
 570 638 l 1,19,-1
 570 505 l 1,20,-1
 430 505 l 1,21,-1
 430 585 l 1,22,-1
 225 585 l 1,23,-1
 225 418 l 1,24,-1
 454 418 l 1,25,-1
 570 351 l 1,26,-1
 570 62 l 1,27,-1
 454 -5 l 1,28,-1
 391 -5 l 1,29,-1
 391 -123 l 1,0,-1
EndSplineSet
EndChar

StartChar: percent
Encoding: 37 37 8
Width: 1001
GlyphClass: 2
Flags: W
LayerCount: 2
Fore
SplineSet
440 424 m 1,0,-1
 324 357 l 1,1,-1
 191 357 l 1,2,-1
 75 424 l 1,3,-1
 75 643 l 1,4,-1
 191 710 l 1,5,-1
 324 710 l 1,6,-1
 440 643 l 1,7,-1
 440 424 l 1,0,-1
196 599 m 1,8,-1
 196 468 l 1,9,-1
 319 468 l 1,10,-1
 319 599 l 1,11,-1
 196 599 l 1,8,-1
692 710 m 1,12,-1
 822 710 l 1,13,-1
 309 -10 l 1,14,-1
 179 -10 l 1,15,-1
 692 710 l 1,12,-1
561 276 m 1,16,-1
 677 343 l 1,17,-1
 810 343 l 1,18,-1
 926 276 l 1,19,-1
 926 57 l 1,20,-1
 810 -10 l 1,21,-1
 677 -10 l 1,22,-1
 561 57 l 1,23,-1
 561 276 l 1,16,-1
805 101 m 1,24,-1
 805 232 l 1,25,-1
 682 232 l 1,26,-1
 682 101 l 1,27,-1
 805 101 l 1,24,-1
EndSplineSet
EndChar

StartChar: ampersand
Encoding: 38 38 9
Width: 665
GlyphClass: 2
Flags: W
LayerCount: 2
Fore
SplineSet
640 422 m 1,0,-1
 640 302 l 1,1,-1
 566 302 l 1,2,-1
 566 62 l 1,3,-1
 450 -5 l 1,4,-1
 201 -5 l 1,5,-1
 85 62 l 1,6,-1
 85 311 l 1,7,-1
 172 361 l 1,8,-1
 172 363 l 1,9,-1
 85 413 l 1,10,-1
 85 638 l 1,11,-1
 201 705 l 1,12,-1
 410 705 l 1,13,-1
 526 638 l 1,14,-1
 526 495 l 1,15,-1
 386 495 l 1,16,-1
 386 585 l 1,17,-1
 225 585 l 1,18,-1
 225 422 l 1,19,-1
 370 422 l 1,20,-1
 370 302 l 1,21,-1
 225 302 l 1,22,-1
 225 115 l 1,23,-1
 426 115 l 1,24,-1
 426 355 l 1,25,-1
 542 422 l 1,26,-1
 640 422 l 1,0,-1
EndSplineSet
EndChar

StartChar: quotesingle
Encoding: 39 39 10
Width: 280
GlyphClass: 2
Flags: W
LayerCount: 2
Fore
SplineSet
85 418 m 1,0,-1
 65 730 l 1,1,-1
 215 730 l 1,2,-1
 195 418 l 1,3,-1
 85 418 l 1,0,-1
EndSplineSet
EndChar

StartChar: parenleft
Encoding: 40 40 11
Width: 383
GlyphClass: 2
Flags: W
LayerCount: 2
Fore
SplineSet
215 630 m 1,0,-1
 215 -100 l 1,1,-1
 328 -100 l 1,2,-1
 328 -200 l 1,3,-1
 201 -200 l 1,4,-1
 85 -133 l 1,5,-1
 85 663 l 1,6,-1
 201 730 l 1,7,-1
 328 730 l 1,8,-1
 328 630 l 1,9,-1
 215 630 l 1,0,-1
EndSplineSet
EndChar

StartChar: parenright
Encoding: 41 41 12
Width: 383
GlyphClass: 2
Flags: W
LayerCount: 2
Fore
SplineSet
168 -100 m 1,0,-1
 168 630 l 1,1,-1
 55 630 l 1,2,-1
 55 730 l 1,3,-1
 182 730 l 1,4,-1
 298 663 l 1,5,-1
 298 -133 l 1,6,-1
 182 -200 l 1,7,-1
 55 -200 l 1,8,-1
 55 -100 l 1,9,-1
 168 -100 l 1,0,-1
EndSplineSet
EndChar

StartChar: asterisk
Encoding: 42 42 13
Width: 649
GlyphClass: 2
Flags: W
LayerCount: 2
Fore
SplineSet
325 376 m 1,0,-1
 324 376 l 1,1,-1
 233 236 l 1,2,-1
 130 310 l 1,3,-1
 236 440 l 1,4,-1
 75 483 l 1,5,-1
 114 604 l 1,6,-1
 270 543 l 1,7,-1
 261 710 l 1,8,-1
 388 710 l 1,9,-1
 379 543 l 1,10,-1
 535 604 l 1,11,-1
 574 483 l 1,12,-1
 413 440 l 1,13,-1
 519 310 l 1,14,-1
 416 236 l 1,15,-1
 325 376 l 1,0,-1
EndSplineSet
EndChar

StartChar: plus
Encoding: 43 43 14
Width: 610
GlyphClass: 2
Flags: W
LayerCount: 2
Fore
SplineSet
45 327 m 1,0,-1
 238 327 l 1,1,-1
 238 520 l 1,2,-1
 372 520 l 1,3,-1
 372 327 l 1,4,-1
 565 327 l 1,5,-1
 565 193 l 1,6,-1
 372 193 l 1,7,-1
 372 0 l 1,8,-1
 238 0 l 1,9,-1
 238 193 l 1,10,-1
 45 193 l 1,11,-1
 45 327 l 1,0,-1
EndSplineSet
EndChar

StartChar: comma
Encoding: 44 44 15
Width: 380
GlyphClass: 2
Flags: W
LayerCount: 2
Fore
SplineSet
95 -200 m 1,0,-1
 95 190 l 1,1,-1
 285 190 l 1,2,-1
 285 108 l 1,3,-1
 177 -200 l 1,4,-1
 95 -200 l 1,0,-1
EndSplineSet
EndChar

StartChar: hyphen
Encoding: 45 45 16
Width: 448
GlyphClass: 2
Flags: W
LayerCount: 2
Fore
SplineSet
65 198 m 1,0,-1
 65 325 l 1,1,-1
 383 325 l 1,2,-1
 383 198 l 1,3,-1
 65 198 l 1,0,-1
EndSplineSet
EndChar

StartChar: period
Encoding: 46 46 17
Width: 380
GlyphClass: 2
Flags: W
LayerCount: 2
Fore
SplineSet
95 0 m 1,0,-1
 95 190 l 1,1,-1
 285 190 l 1,2,-1
 285 0 l 1,3,-1
 95 0 l 1,0,-1
EndSplineSet
EndChar

StartChar: slash
Encoding: 47 47 18
Width: 416
GlyphClass: 2
Flags: W
LayerCount: 2
Fore
SplineSet
25 -20 m 1,0,-1
 261 720 l 1,1,-1
 391 720 l 1,2,-1
 155 -20 l 1,3,-1
 25 -20 l 1,0,-1
EndSplineSet
EndChar

StartChar: zero
Encoding: 48 48 19
Width: 675
GlyphClass: 2
Flags: W
LayerCount: 2
Fore
SplineSet
590 62 m 1,0,-1
 474 -5 l 1,1,-1
 201 -5 l 1,2,-1
 85 62 l 1,3,-1
 85 638 l 1,4,-1
 201 705 l 1,5,-1
 474 705 l 1,6,-1
 590 638 l 1,7,-1
 590 62 l 1,0,-1
225 585 m 1,8,-1
 225 115 l 1,9,-1
 450 115 l 1,10,-1
 450 585 l 1,11,-1
 225 585 l 1,8,-1
EndSplineSet
EndChar

StartChar: one
Encoding: 49 49 20
Width: 580
GlyphClass: 2
Flags: W
LayerCount: 2
Fore
SplineSet
85 466 m 1,0,-1
 85 597 l 1,1,-1
 265 700 l 1,2,-1
 385 700 l 1,3,-1
 385 120 l 1,4,-1
 545 120 l 1,5,-1
 545 0 l 1,6,-1
 85 0 l 1,7,-1
 85 120 l 1,8,-1
 245 120 l 1,9,-1
 245 558 l 1,10,-1
 85 466 l 1,0,-1
EndSplineSet
EndChar

StartChar: two
Encoding: 50 50 21
Width: 640
GlyphClass: 2
Flags: W
LayerCount: 2
Fore
SplineSet
225 120 m 1,0,-1
 555 120 l 1,1,-1
 555 0 l 1,2,-1
 85 0 l 1,3,-1
 85 329 l 1,4,-1
 201 396 l 1,5,-1
 415 396 l 1,6,-1
 415 580 l 1,7,-1
 225 580 l 1,8,-1
 225 490 l 1,9,-1
 85 490 l 1,10,-1
 85 633 l 1,11,-1
 201 700 l 1,12,-1
 439 700 l 1,13,-1
 555 633 l 1,14,-1
 555 343 l 1,15,-1
 439 276 l 1,16,-1
 225 276 l 1,17,-1
 225 120 l 1,0,-1
EndSplineSet
EndChar

StartChar: three
Encoding: 51 51 22
Width: 661
GlyphClass: 2
Flags: W
LayerCount: 2
Fore
SplineSet
460 -5 m 1,0,-1
 201 -5 l 1,1,-1
 85 62 l 1,2,-1
 85 205 l 1,3,-1
 225 205 l 1,4,-1
 225 115 l 1,5,-1
 436 115 l 1,6,-1
 436 302 l 1,7,-1
 261 302 l 1,8,-1
 261 422 l 1,9,-1
 436 422 l 1,10,-1
 436 585 l 1,11,-1
 225 585 l 1,12,-1
 225 495 l 1,13,-1
 85 495 l 1,14,-1
 85 638 l 1,15,-1
 201 705 l 1,16,-1
 460 705 l 1,17,-1
 576 638 l 1,18,-1
 576 413 l 1,19,-1
 489 363 l 1,20,-1
 489 361 l 1,21,-1
 576 311 l 1,22,-1
 576 62 l 1,23,-1
 460 -5 l 1,0,-1
EndSplineSet
EndChar

StartChar: four
Encoding: 52 52 23
Width: 636
GlyphClass: 2
Flags: W
LayerCount: 2
Fore
SplineSet
505 155 m 1,0,-1
 505 0 l 1,1,-1
 367 0 l 1,2,-1
 367 155 l 1,3,-1
 35 155 l 1,4,-1
 35 255 l 1,5,-1
 382 700 l 1,6,-1
 505 700 l 1,7,-1
 505 268 l 1,8,-1
 591 268 l 1,9,-1
 591 155 l 1,10,-1
 505 155 l 1,0,-1
190 268 m 1,11,-1
 367 268 l 1,12,-1
 367 494 l 1,13,-1
 365 494 l 1,14,-1
 190 270 l 1,15,-1
 190 268 l 1,11,-1
EndSplineSet
EndChar

StartChar: five
Encoding: 53 53 24
Width: 655
GlyphClass: 2
Flags: W
LayerCount: 2
Fore
SplineSet
245 580 m 1,0,-1
 245 446 l 1,1,-1
 454 446 l 1,2,-1
 570 379 l 1,3,-1
 570 62 l 1,4,-1
 454 -5 l 1,5,-1
 201 -5 l 1,6,-1
 85 62 l 1,7,-1
 85 205 l 1,8,-1
 225 205 l 1,9,-1
 225 115 l 1,10,-1
 430 115 l 1,11,-1
 430 326 l 1,12,-1
 105 326 l 1,13,-1
 105 700 l 1,14,-1
 560 700 l 1,15,-1
 560 580 l 1,16,-1
 245 580 l 1,0,-1
EndSplineSet
EndChar

StartChar: six
Encoding: 54 54 25
Width: 645
GlyphClass: 2
Flags: W
LayerCount: 2
Fore
SplineSet
225 585 m 1,0,-1
 225 384 l 1,1,-1
 296 425 l 1,2,-1
 444 425 l 1,3,-1
 560 358 l 1,4,-1
 560 62 l 1,5,-1
 444 -5 l 1,6,-1
 201 -5 l 1,7,-1
 85 62 l 1,8,-1
 85 638 l 1,9,-1
 201 705 l 1,10,-1
 444 705 l 1,11,-1
 560 638 l 1,12,-1
 560 495 l 1,13,-1
 420 495 l 1,14,-1
 420 585 l 1,15,-1
 225 585 l 1,0,-1
225 305 m 1,16,-1
 225 115 l 1,17,-1
 420 115 l 1,18,-1
 420 305 l 1,19,-1
 225 305 l 1,16,-1
EndSplineSet
EndChar

StartChar: seven
Encoding: 55 55 26
Width: 625
GlyphClass: 2
Flags: W
LayerCount: 2
Fore
SplineSet
298 0 m 1,0,-1
 151 0 l 1,1,-1
 420 578 l 1,2,-1
 420 580 l 1,3,-1
 195 580 l 1,4,-1
 195 490 l 1,5,-1
 55 490 l 1,6,-1
 55 700 l 1,7,-1
 580 700 l 1,8,-1
 580 610 l 1,9,-1
 298 0 l 1,0,-1
EndSplineSet
EndChar

StartChar: eight
Encoding: 56 56 27
Width: 655
GlyphClass: 2
Flags: W
LayerCount: 2
Fore
SplineSet
225 115 m 1,0,-1
 430 115 l 1,1,-1
 430 302 l 1,2,-1
 225 302 l 1,3,-1
 225 115 l 1,0,-1
225 422 m 1,4,-1
 430 422 l 1,5,-1
 430 585 l 1,6,-1
 225 585 l 1,7,-1
 225 422 l 1,4,-1
454 -5 m 1,8,-1
 185 -5 l 1,9,-1
 85 62 l 1,10,-1
 85 311 l 1,11,-1
 172 361 l 1,12,-1
 172 363 l 1,13,-1
 85 413 l 1,14,-1
 85 638 l 1,15,-1
 201 705 l 1,16,-1
 454 705 l 1,17,-1
 570 638 l 1,18,-1
 570 413 l 1,19,-1
 483 363 l 1,20,-1
 483 361 l 1,21,-1
 570 311 l 1,22,-1
 570 62 l 1,23,-1
 454 -5 l 1,8,-1
EndSplineSet
EndChar

StartChar: nine
Encoding: 57 57 28
Width: 645
GlyphClass: 2
Flags: W
LayerCount: 2
Fore
SplineSet
420 115 m 1,0,-1
 420 316 l 1,1,-1
 349 275 l 1,2,-1
 201 275 l 1,3,-1
 85 342 l 1,4,-1
 85 638 l 1,5,-1
 201 705 l 1,6,-1
 444 705 l 1,7,-1
 560 638 l 1,8,-1
 560 62 l 1,9,-1
 444 -5 l 1,10,-1
 201 -5 l 1,11,-1
 85 62 l 1,12,-1
 85 205 l 1,13,-1
 225 205 l 1,14,-1
 225 115 l 1,15,-1
 420 115 l 1,0,-1
420 395 m 1,16,-1
 420 585 l 1,17,-1
 225 585 l 1,18,-1
 225 395 l 1,19,-1
 420 395 l 1,16,-1
EndSplineSet
EndChar

StartChar: colon
Encoding: 58 58 29
Width: 380
GlyphClass: 2
Flags: W
LayerCount: 2
Fore
SplineSet
95 0 m 1,0,-1
 95 190 l 1,1,-1
 285 190 l 1,2,-1
 285 0 l 1,3,-1
 95 0 l 1,0,-1
95 330 m 1,4,-1
 95 520 l 1,5,-1
 285 520 l 1,6,-1
 285 330 l 1,7,-1
 95 330 l 1,4,-1
EndSplineSet
EndChar

StartChar: semicolon
Encoding: 59 59 30
Width: 380
GlyphClass: 2
Flags: W
LayerCount: 2
Fore
SplineSet
95 -200 m 1,0,-1
 95 190 l 1,1,-1
 285 190 l 1,2,-1
 285 108 l 1,3,-1
 177 -200 l 1,4,-1
 95 -200 l 1,0,-1
95 330 m 1,5,-1
 95 520 l 1,6,-1
 285 520 l 1,7,-1
 285 330 l 1,8,-1
 95 330 l 1,5,-1
EndSplineSet
EndChar

StartChar: less
Encoding: 60 60 31
Width: 660
GlyphClass: 2
Flags: W
LayerCount: 2
Fore
SplineSet
575 501 m 1,0,-1
 575 367 l 1,1,-1
 220 251 l 1,2,-1
 220 249 l 1,3,-1
 575 133 l 1,4,-1
 575 -1 l 1,5,-1
 55 179 l 1,6,-1
 55 321 l 1,7,-1
 575 501 l 1,0,-1
EndSplineSet
EndChar

StartChar: equal
Encoding: 61 61 32
Width: 690
GlyphClass: 2
Flags: W
LayerCount: 2
Fore
SplineSet
605 198 m 1,0,-1
 605 74 l 1,1,-1
 85 74 l 1,2,-1
 85 198 l 1,3,-1
 605 198 l 1,0,-1
605 426 m 1,4,-1
 605 302 l 1,5,-1
 85 302 l 1,6,-1
 85 426 l 1,7,-1
 605 426 l 1,4,-1
EndSplineSet
EndChar

StartChar: greater
Encoding: 62 62 33
Width: 660
GlyphClass: 2
Flags: W
LayerCount: 2
Fore
SplineSet
85 367 m 1,0,-1
 85 501 l 1,1,-1
 605 321 l 1,2,-1
 605 179 l 1,3,-1
 85 -1 l 1,4,-1
 85 133 l 1,5,-1
 440 249 l 1,6,-1
 440 251 l 1,7,-1
 85 367 l 1,0,-1
EndSplineSet
EndChar

StartChar: question
Encoding: 63 63 34
Width: 590
GlyphClass: 2
Flags: W
LayerCount: 2
Fore
SplineSet
317 376 m 1,0,-1
 308 288 l 1,1,-1
 198 288 l 1,2,-1
 188 429 l 1,3,-1
 304 496 l 1,4,-1
 365 496 l 1,5,-1
 365 610 l 1,6,-1
 225 610 l 1,7,-1
 225 520 l 1,8,-1
 85 520 l 1,9,-1
 85 663 l 1,10,-1
 201 730 l 1,11,-1
 389 730 l 1,12,-1
 505 663 l 1,13,-1
 505 443 l 1,14,-1
 389 376 l 1,15,-1
 317 376 l 1,0,-1
158 0 m 1,16,-1
 158 190 l 1,17,-1
 348 190 l 1,18,-1
 348 0 l 1,19,-1
 158 0 l 1,16,-1
EndSplineSet
EndChar

StartChar: at
Encoding: 64 64 35
Width: 1020
GlyphClass: 2
Flags: W
LayerCount: 2
Fore
SplineSet
819 -141 m 1,0,-1
 201 -141 l 1,1,-1
 85 -74 l 1,2,-1
 85 638 l 1,3,-1
 201 705 l 1,4,-1
 819 705 l 1,5,-1
 935 638 l 1,6,-1
 935 104 l 1,7,-1
 819 37 l 1,8,-1
 609 37 l 1,9,-1
 543 78 l 1,10,-1
 467 37 l 1,11,-1
 386 37 l 1,12,-1
 277 104 l 1,13,-1
 316 470 l 1,14,-1
 439 537 l 1,15,-1
 520 537 l 1,16,-1
 586 496 l 1,17,-1
 662 537 l 1,18,-1
 728 537 l 1,19,-1
 687 147 l 1,20,-1
 805 147 l 1,21,-1
 805 595 l 1,22,-1
 215 595 l 1,23,-1
 215 -31 l 1,24,-1
 819 -31 l 1,25,-1
 819 -141 l 1,0,-1
447 420 m 1,26,-1
 420 154 l 1,27,-1
 551 154 l 1,28,-1
 578 420 l 1,29,-1
 447 420 l 1,26,-1
EndSplineSet
EndChar

StartChar: A
Encoding: 65 65 36
Width: 674
GlyphClass: 2
Flags: W
LayerCount: 2
Fore
SplineSet
409 700 m 1,0,-1
 659 0 l 1,1,-1
 521 0 l 1,2,-1
 468 151 l 1,3,-1
 206 151 l 1,4,-1
 153 0 l 1,5,-1
 15 0 l 1,6,-1
 265 700 l 1,7,-1
 409 700 l 1,0,-1
336 524 m 1,8,-1
 248 271 l 1,9,-1
 425 271 l 1,10,-1
 338 524 l 1,11,-1
 336 524 l 1,8,-1
EndSplineSet
EndChar

StartChar: B
Encoding: 66 66 37
Width: 665
GlyphClass: 2
Flags: W
LayerCount: 2
Fore
SplineSet
580 413 m 1,0,-1
 493 363 l 1,1,-1
 493 361 l 1,2,-1
 580 311 l 1,3,-1
 580 67 l 1,4,-1
 464 0 l 1,5,-1
 85 0 l 1,6,-1
 85 700 l 1,7,-1
 464 700 l 1,8,-1
 580 633 l 1,9,-1
 580 413 l 1,0,-1
225 302 m 1,10,-1
 225 120 l 1,11,-1
 440 120 l 1,12,-1
 440 302 l 1,13,-1
 225 302 l 1,10,-1
225 580 m 1,14,-1
 225 422 l 1,15,-1
 440 422 l 1,16,-1
 440 580 l 1,17,-1
 225 580 l 1,14,-1
EndSplineSet
EndChar

StartChar: C
Encoding: 67 67 38
Width: 675
GlyphClass: 2
Flags: W
LayerCount: 2
Fore
SplineSet
460 205 m 1,0,-1
 600 205 l 1,1,-1
 600 62 l 1,2,-1
 484 -5 l 1,3,-1
 201 -5 l 1,4,-1
 85 62 l 1,5,-1
 85 638 l 1,6,-1
 201 705 l 1,7,-1
 484 705 l 1,8,-1
 600 638 l 1,9,-1
 600 495 l 1,10,-1
 460 495 l 1,11,-1
 460 585 l 1,12,-1
 225 585 l 1,13,-1
 225 115 l 1,14,-1
 460 115 l 1,15,-1
 460 205 l 1,0,-1
EndSplineSet
EndChar

StartChar: D
Encoding: 68 68 39
Width: 715
GlyphClass: 2
Flags: W
LayerCount: 2
Fore
SplineSet
630 67 m 1,0,-1
 514 0 l 1,1,-1
 85 0 l 1,2,-1
 85 700 l 1,3,-1
 514 700 l 1,4,-1
 630 633 l 1,5,-1
 630 67 l 1,0,-1
225 580 m 1,6,-1
 225 120 l 1,7,-1
 490 120 l 1,8,-1
 490 580 l 1,9,-1
 225 580 l 1,6,-1
EndSplineSet
EndChar

StartChar: E
Encoding: 69 69 40
Width: 549
GlyphClass: 2
Flags: W
LayerCount: 2
Fore
SplineSet
225 300 m 1,0,-1
 225 120 l 1,1,-1
 504 120 l 1,2,-1
 504 0 l 1,3,-1
 85 0 l 1,4,-1
 85 700 l 1,5,-1
 504 700 l 1,6,-1
 504 580 l 1,7,-1
 225 580 l 1,8,-1
 225 420 l 1,9,-1
 444 420 l 1,10,-1
 444 300 l 1,11,-1
 225 300 l 1,0,-1
EndSplineSet
EndChar

StartChar: F
Encoding: 70 70 41
Width: 539
GlyphClass: 2
Flags: W
LayerCount: 2
Fore
SplineSet
225 300 m 1,0,-1
 225 0 l 1,1,-1
 85 0 l 1,2,-1
 85 700 l 1,3,-1
 514 700 l 1,4,-1
 514 580 l 1,5,-1
 225 580 l 1,6,-1
 225 420 l 1,7,-1
 454 420 l 1,8,-1
 454 300 l 1,9,-1
 225 300 l 1,0,-1
EndSplineSet
EndChar

StartChar: G
Encoding: 71 71 42
Width: 665
GlyphClass: 2
Flags: W
LayerCount: 2
Fore
SplineSet
335 245 m 1,0,-1
 335 365 l 1,1,-1
 590 365 l 1,2,-1
 590 62 l 1,3,-1
 474 -5 l 1,4,-1
 191 -5 l 1,5,-1
 75 62 l 1,6,-1
 75 638 l 1,7,-1
 191 705 l 1,8,-1
 474 705 l 1,9,-1
 590 638 l 1,10,-1
 590 495 l 1,11,-1
 450 495 l 1,12,-1
 450 585 l 1,13,-1
 215 585 l 1,14,-1
 215 115 l 1,15,-1
 450 115 l 1,16,-1
 450 245 l 1,17,-1
 335 245 l 1,0,-1
EndSplineSet
EndChar

StartChar: H
Encoding: 72 72 43
Width: 725
GlyphClass: 2
Flags: W
LayerCount: 2
Fore
SplineSet
225 300 m 1,0,-1
 225 0 l 1,1,-1
 85 0 l 1,2,-1
 85 700 l 1,3,-1
 225 700 l 1,4,-1
 225 420 l 1,5,-1
 500 420 l 1,6,-1
 500 700 l 1,7,-1
 640 700 l 1,8,-1
 640 0 l 1,9,-1
 500 0 l 1,10,-1
 500 300 l 1,11,-1
 225 300 l 1,0,-1
EndSplineSet
EndChar

StartChar: I
Encoding: 73 73 44
Width: 310
GlyphClass: 2
Flags: W
LayerCount: 2
Fore
SplineSet
85 0 m 1,0,-1
 85 700 l 1,1,-1
 225 700 l 1,2,-1
 225 0 l 1,3,-1
 85 0 l 1,0,-1
EndSplineSet
EndChar

StartChar: J
Encoding: 74 74 45
Width: 545
GlyphClass: 2
Flags: W
LayerCount: 2
Fore
SplineSet
320 115 m 1,0,-1
 320 700 l 1,1,-1
 460 700 l 1,2,-1
 460 62 l 1,3,-1
 344 -5 l 1,4,-1
 131 -5 l 1,5,-1
 15 62 l 1,6,-1
 15 255 l 1,7,-1
 155 255 l 1,8,-1
 155 115 l 1,9,-1
 320 115 l 1,0,-1
EndSplineSet
EndChar

StartChar: K
Encoding: 75 75 46
Width: 690
GlyphClass: 2
Flags: W
LayerCount: 2
Fore
SplineSet
85 0 m 1,0,-1
 85 700 l 1,1,-1
 225 700 l 1,2,-1
 225 385 l 1,3,-1
 227 385 l 1,4,-1
 488 700 l 1,5,-1
 654 700 l 1,6,-1
 378 372 l 1,7,-1
 685 0 l 1,8,-1
 517 0 l 1,9,-1
 294 272 l 1,10,-1
 225 191 l 1,11,-1
 225 0 l 1,12,-1
 85 0 l 1,0,-1
EndSplineSet
EndChar

StartChar: L
Encoding: 76 76 47
Width: 489
GlyphClass: 2
Flags: W
LayerCount: 2
Fore
SplineSet
85 0 m 1,0,-1
 85 700 l 1,1,-1
 225 700 l 1,2,-1
 225 120 l 1,3,-1
 464 120 l 1,4,-1
 464 0 l 1,5,-1
 85 0 l 1,0,-1
EndSplineSet
EndChar

StartChar: M
Encoding: 77 77 48
Width: 894
GlyphClass: 2
Flags: W
LayerCount: 2
Fore
SplineSet
674 0 m 1,0,-1
 674 462 l 1,1,-1
 672 462 l 1,2,-1
 514 0 l 1,3,-1
 381 0 l 1,4,-1
 222 468 l 1,5,-1
 220 468 l 1,6,-1
 220 0 l 1,7,-1
 85 0 l 1,8,-1
 85 700 l 1,9,-1
 271 700 l 1,10,-1
 447 185 l 1,11,-1
 449 185 l 1,12,-1
 624 700 l 1,13,-1
 809 700 l 1,14,-1
 809 0 l 1,15,-1
 674 0 l 1,0,-1
EndSplineSet
EndChar

StartChar: N
Encoding: 78 78 49
Width: 745
GlyphClass: 2
Flags: W
LayerCount: 2
Fore
SplineSet
225 453 m 1,0,-1
 225 0 l 1,1,-1
 85 0 l 1,2,-1
 85 700 l 1,3,-1
 216 700 l 1,4,-1
 518 247 l 1,5,-1
 520 247 l 1,6,-1
 520 700 l 1,7,-1
 660 700 l 1,8,-1
 660 0 l 1,9,-1
 529 0 l 1,10,-1
 227 453 l 1,11,-1
 225 453 l 1,0,-1
EndSplineSet
EndChar

StartChar: O
Encoding: 79 79 50
Width: 715
GlyphClass: 2
Flags: W
LayerCount: 2
Fore
SplineSet
630 62 m 1,0,-1
 514 -5 l 1,1,-1
 201 -5 l 1,2,-1
 85 62 l 1,3,-1
 85 638 l 1,4,-1
 201 705 l 1,5,-1
 514 705 l 1,6,-1
 630 638 l 1,7,-1
 630 62 l 1,0,-1
225 585 m 1,8,-1
 225 115 l 1,9,-1
 490 115 l 1,10,-1
 490 585 l 1,11,-1
 225 585 l 1,8,-1
EndSplineSet
EndChar

StartChar: P
Encoding: 80 80 51
Width: 625
GlyphClass: 2
Flags: W
LayerCount: 2
Fore
SplineSet
85 0 m 1,0,-1
 85 700 l 1,1,-1
 454 700 l 1,2,-1
 570 633 l 1,3,-1
 570 321 l 1,4,-1
 454 254 l 1,5,-1
 225 254 l 1,6,-1
 225 0 l 1,7,-1
 85 0 l 1,0,-1
225 580 m 1,8,-1
 225 374 l 1,9,-1
 430 374 l 1,10,-1
 430 580 l 1,11,-1
 225 580 l 1,8,-1
EndSplineSet
EndChar

StartChar: Q
Encoding: 81 81 52
Width: 715
GlyphClass: 2
Flags: W
LayerCount: 2
Fore
SplineSet
225 585 m 1,0,-1
 225 115 l 1,1,-1
 490 115 l 1,2,-1
 490 585 l 1,3,-1
 225 585 l 1,0,-1
364 -5 m 1,4,-1
 201 -5 l 1,5,-1
 85 62 l 1,6,-1
 85 638 l 1,7,-1
 201 705 l 1,8,-1
 514 705 l 1,9,-1
 630 638 l 1,10,-1
 630 62 l 1,11,-1
 514 -5 l 1,12,-1
 627 -200 l 1,13,-1
 474 -200 l 1,14,-1
 364 -5 l 1,4,-1
EndSplineSet
EndChar

StartChar: R
Encoding: 82 82 53
Width: 665
GlyphClass: 2
Flags: W
LayerCount: 2
Fore
SplineSet
616 0 m 1,0,-1
 462 0 l 1,1,-1
 312 264 l 1,2,-1
 225 264 l 1,3,-1
 225 0 l 1,4,-1
 85 0 l 1,5,-1
 85 700 l 1,6,-1
 464 700 l 1,7,-1
 580 633 l 1,8,-1
 580 331 l 1,9,-1
 464 264 l 1,10,-1
 616 0 l 1,0,-1
225 580 m 1,11,-1
 225 384 l 1,12,-1
 440 384 l 1,13,-1
 440 580 l 1,14,-1
 225 580 l 1,11,-1
EndSplineSet
EndChar

StartChar: S
Encoding: 83 83 54
Width: 655
GlyphClass: 2
Flags: W
LayerCount: 2
Fore
SplineSet
85 355 m 1,0,-1
 85 638 l 1,1,-1
 201 705 l 1,2,-1
 454 705 l 1,3,-1
 570 638 l 1,4,-1
 570 505 l 1,5,-1
 430 505 l 1,6,-1
 430 585 l 1,7,-1
 225 585 l 1,8,-1
 225 418 l 1,9,-1
 454 418 l 1,10,-1
 570 351 l 1,11,-1
 570 62 l 1,12,-1
 454 -5 l 1,13,-1
 191 -5 l 1,14,-1
 75 62 l 1,15,-1
 75 195 l 1,16,-1
 215 195 l 1,17,-1
 215 115 l 1,18,-1
 430 115 l 1,19,-1
 430 288 l 1,20,-1
 201 288 l 1,21,-1
 85 355 l 1,0,-1
EndSplineSet
EndChar

StartChar: T
Encoding: 84 84 55
Width: 568
GlyphClass: 2
Flags: W
LayerCount: 2
Fore
SplineSet
354 580 m 1,0,-1
 354 0 l 1,1,-1
 214 0 l 1,2,-1
 214 580 l 1,3,-1
 25 580 l 1,4,-1
 25 700 l 1,5,-1
 543 700 l 1,6,-1
 543 580 l 1,7,-1
 354 580 l 1,0,-1
EndSplineSet
EndChar

StartChar: U
Encoding: 85 85 56
Width: 715
GlyphClass: 2
Flags: W
LayerCount: 2
Fore
SplineSet
490 700 m 1,0,-1
 630 700 l 1,1,-1
 630 62 l 1,2,-1
 514 -5 l 1,3,-1
 201 -5 l 1,4,-1
 85 62 l 1,5,-1
 85 700 l 1,6,-1
 225 700 l 1,7,-1
 225 125 l 1,8,-1
 490 125 l 1,9,-1
 490 700 l 1,0,-1
EndSplineSet
EndChar

StartChar: V
Encoding: 86 86 57
Width: 684
GlyphClass: 2
Flags: W
LayerCount: 2
Fore
SplineSet
669 700 m 1,0,-1
 419 0 l 1,1,-1
 265 0 l 1,2,-1
 15 700 l 1,3,-1
 157 700 l 1,4,-1
 342 171 l 1,5,-1
 344 171 l 1,6,-1
 527 700 l 1,7,-1
 669 700 l 1,0,-1
EndSplineSet
EndChar

StartChar: W
Encoding: 87 87 58
Width: 960
GlyphClass: 2
Flags: W
LayerCount: 2
Fore
SplineSet
935 700 m 1,0,-1
 757 0 l 1,1,-1
 607 0 l 1,2,-1
 481 473 l 1,3,-1
 479 473 l 1,4,-1
 353 0 l 1,5,-1
 203 0 l 1,6,-1
 25 700 l 1,7,-1
 161 700 l 1,8,-1
 279 220 l 1,9,-1
 281 220 l 1,10,-1
 409 700 l 1,11,-1
 551 700 l 1,12,-1
 679 222 l 1,13,-1
 681 222 l 1,14,-1
 799 700 l 1,15,-1
 935 700 l 1,0,-1
EndSplineSet
EndChar

StartChar: X
Encoding: 88 88 59
Width: 661
GlyphClass: 2
Flags: W
LayerCount: 2
Fore
SplineSet
25 0 m 1,0,-1
 251 358 l 1,1,-1
 35 700 l 1,2,-1
 193 700 l 1,3,-1
 330 483 l 1,4,-1
 468 700 l 1,5,-1
 626 700 l 1,6,-1
 409 358 l 1,7,-1
 636 0 l 1,8,-1
 478 0 l 1,9,-1
 330 233 l 1,10,-1
 183 0 l 1,11,-1
 25 0 l 1,0,-1
EndSplineSet
EndChar

StartChar: Y
Encoding: 89 89 60
Width: 621
GlyphClass: 2
Flags: W
LayerCount: 2
Fore
SplineSet
240 0 m 1,0,-1
 240 299 l 1,1,-1
 15 700 l 1,2,-1
 167 700 l 1,3,-1
 309 438 l 1,4,-1
 311 438 l 1,5,-1
 454 700 l 1,6,-1
 606 700 l 1,7,-1
 380 298 l 1,8,-1
 380 0 l 1,9,-1
 240 0 l 1,0,-1
EndSplineSet
EndChar

StartChar: Z
Encoding: 90 90 61
Width: 595
GlyphClass: 2
Flags: W
LayerCount: 2
Fore
SplineSet
65 580 m 1,0,-1
 65 700 l 1,1,-1
 540 700 l 1,2,-1
 540 610 l 1,3,-1
 225 122 l 1,4,-1
 225 120 l 1,5,-1
 540 120 l 1,6,-1
 540 0 l 1,7,-1
 45 0 l 1,8,-1
 45 90 l 1,9,-1
 360 578 l 1,10,-1
 360 580 l 1,11,-1
 65 580 l 1,0,-1
EndSplineSet
EndChar

StartChar: bracketleft
Encoding: 91 91 62
Width: 373
GlyphClass: 2
Flags: W
LayerCount: 2
Fore
SplineSet
215 630 m 1,0,-1
 215 -100 l 1,1,-1
 318 -100 l 1,2,-1
 318 -200 l 1,3,-1
 85 -200 l 1,4,-1
 85 730 l 1,5,-1
 318 730 l 1,6,-1
 318 630 l 1,7,-1
 215 630 l 1,0,-1
EndSplineSet
EndChar

StartChar: backslash
Encoding: 92 92 63
Width: 416
GlyphClass: 2
Flags: W
LayerCount: 2
Fore
SplineSet
155 720 m 1,0,-1
 391 -20 l 1,1,-1
 261 -20 l 1,2,-1
 25 720 l 1,3,-1
 155 720 l 1,0,-1
EndSplineSet
EndChar

StartChar: bracketright
Encoding: 93 93 64
Width: 373
GlyphClass: 2
Flags: W
LayerCount: 2
Fore
SplineSet
158 -100 m 1,0,-1
 158 630 l 1,1,-1
 55 630 l 1,2,-1
 55 730 l 1,3,-1
 288 730 l 1,4,-1
 288 -200 l 1,5,-1
 55 -200 l 1,6,-1
 55 -100 l 1,7,-1
 158 -100 l 1,0,-1
EndSplineSet
EndChar

StartChar: asciicircum
Encoding: 94 94 65
Width: 612
GlyphClass: 2
Flags: W
LayerCount: 2
Fore
SplineSet
192 380 m 1,0,-1
 45 380 l 1,1,-1
 245 700 l 1,2,-1
 367 700 l 1,3,-1
 567 380 l 1,4,-1
 420 380 l 1,5,-1
 307 573 l 1,6,-1
 306 573 l 1,7,-1
 192 380 l 1,0,-1
EndSplineSet
EndChar

StartChar: underscore
Encoding: 95 95 66
Width: 602
GlyphClass: 2
Flags: W
LayerCount: 2
Fore
SplineSet
627 -86 m 1,0,-1
 627 -200 l 1,1,-1
 -25 -200 l 1,2,-1
 -25 -86 l 1,3,-1
 627 -86 l 1,0,-1
EndSplineSet
EndChar

StartChar: grave
Encoding: 96 96 67
Width: 500
GlyphClass: 2
Flags: W
LayerCount: 2
Fore
SplineSet
335 718 m 1,0,-1
 429 590 l 1,1,-1
 309 590 l 1,2,-1
 165 718 l 1,3,-1
 335 718 l 1,0,-1
EndSplineSet
EndChar

StartChar: a
Encoding: 97 97 68
Width: 545
GlyphClass: 2
Flags: W
LayerCount: 2
Fore
SplineSet
192 197 m 1,0,-1
 192 110 l 1,1,-1
 333 110 l 1,2,-1
 333 197 l 1,3,-1
 192 197 l 1,0,-1
171 -5 m 1,4,-1
 55 62 l 1,5,-1
 55 235 l 1,6,-1
 171 302 l 1,7,-1
 333 302 l 1,8,-1
 333 383 l 1,9,-1
 105 383 l 1,10,-1
 105 500 l 1,11,-1
 354 500 l 1,12,-1
 470 433 l 1,13,-1
 470 -5 l 1,14,-1
 404 -5 l 1,15,-1
 333 36 l 1,16,-1
 262 -5 l 1,17,-1
 171 -5 l 1,4,-1
EndSplineSet
EndChar

StartChar: b
Encoding: 98 98 69
Width: 605
GlyphClass: 2
Flags: W
LayerCount: 2
Fore
SplineSet
283 505 m 1,0,-1
 414 505 l 1,1,-1
 530 438 l 1,2,-1
 530 62 l 1,3,-1
 414 -5 l 1,4,-1
 283 -5 l 1,5,-1
 212 36 l 1,6,-1
 141 -5 l 1,7,-1
 75 -5 l 1,8,-1
 75 730 l 1,9,-1
 212 730 l 1,10,-1
 212 464 l 1,11,-1
 283 505 l 1,0,-1
212 388 m 1,12,-1
 212 112 l 1,13,-1
 393 112 l 1,14,-1
 393 388 l 1,15,-1
 212 388 l 1,12,-1
EndSplineSet
EndChar

StartChar: c
Encoding: 99 99 70
Width: 515
GlyphClass: 2
Flags: W
LayerCount: 2
Fore
SplineSet
212 383 m 1,0,-1
 212 117 l 1,1,-1
 460 117 l 1,2,-1
 460 0 l 1,3,-1
 191 0 l 1,4,-1
 75 67 l 1,5,-1
 75 433 l 1,6,-1
 191 500 l 1,7,-1
 460 500 l 1,8,-1
 460 383 l 1,9,-1
 212 383 l 1,0,-1
EndSplineSet
EndChar

StartChar: d
Encoding: 100 100 71
Width: 605
GlyphClass: 2
Flags: W
LayerCount: 2
Fore
SplineSet
191 505 m 1,0,-1
 322 505 l 1,1,-1
 393 464 l 1,2,-1
 393 730 l 1,3,-1
 530 730 l 1,4,-1
 530 -5 l 1,5,-1
 417 -5 l 1,6,-1
 393 36 l 1,7,-1
 322 -5 l 1,8,-1
 191 -5 l 1,9,-1
 75 62 l 1,10,-1
 75 438 l 1,11,-1
 191 505 l 1,0,-1
393 112 m 1,12,-1
 393 388 l 1,13,-1
 212 388 l 1,14,-1
 212 112 l 1,15,-1
 393 112 l 1,12,-1
EndSplineSet
EndChar

StartChar: e
Encoding: 101 101 72
Width: 565
GlyphClass: 2
Flags: W
LayerCount: 2
Fore
SplineSet
490 117 m 1,0,-1
 490 0 l 1,1,-1
 191 0 l 1,2,-1
 75 67 l 1,3,-1
 75 438 l 1,4,-1
 191 505 l 1,5,-1
 374 505 l 1,6,-1
 490 438 l 1,7,-1
 490 199 l 1,8,-1
 212 199 l 1,9,-1
 212 117 l 1,10,-1
 490 117 l 1,0,-1
212 388 m 1,11,-1
 212 302 l 1,12,-1
 353 302 l 1,13,-1
 353 388 l 1,14,-1
 212 388 l 1,11,-1
EndSplineSet
EndChar

StartChar: f
Encoding: 102 102 73
Width: 409
GlyphClass: 2
Flags: W
LayerCount: 2
Fore
SplineSet
35 383 m 1,0,-1
 35 500 l 1,1,-1
 127 500 l 1,2,-1
 127 663 l 1,3,-1
 243 730 l 1,4,-1
 374 730 l 1,5,-1
 374 613 l 1,6,-1
 264 613 l 1,7,-1
 264 500 l 1,8,-1
 374 500 l 1,9,-1
 374 383 l 1,10,-1
 264 383 l 1,11,-1
 264 0 l 1,12,-1
 127 0 l 1,13,-1
 127 383 l 1,14,-1
 35 383 l 1,0,-1
EndSplineSet
EndChar

StartChar: g
Encoding: 103 103 74
Width: 585
GlyphClass: 2
Flags: W
LayerCount: 2
Fore
SplineSet
55 -138 m 1,0,-1
 55 -68 l 1,1,-1
 171 0 l 1,2,-1
 75 56 l 1,3,-1
 75 146 l 1,4,-1
 146 187 l 1,5,-1
 75 228 l 1,6,-1
 75 433 l 1,7,-1
 191 500 l 1,8,-1
 530 500 l 1,9,-1
 530 436 l 1,10,-1
 439 383 l 1,11,-1
 500 347 l 1,12,-1
 500 239 l 1,13,-1
 384 172 l 1,14,-1
 212 172 l 1,15,-1
 212 107 l 1,16,-1
 414 107 l 1,17,-1
 530 40 l 1,18,-1
 530 -138 l 1,19,-1
 414 -205 l 1,20,-1
 171 -205 l 1,21,-1
 55 -138 l 1,0,-1
393 0 m 1,22,-1
 192 0 l 1,23,-1
 192 -90 l 1,24,-1
 393 -90 l 1,25,-1
 393 0 l 1,22,-1
212 388 m 1,26,-1
 212 284 l 1,27,-1
 363 284 l 1,28,-1
 363 388 l 1,29,-1
 212 388 l 1,26,-1
EndSplineSet
EndChar

StartChar: h
Encoding: 104 104 75
Width: 605
GlyphClass: 2
Flags: W
LayerCount: 2
Fore
SplineSet
212 0 m 1,0,-1
 75 0 l 1,1,-1
 75 730 l 1,2,-1
 212 730 l 1,3,-1
 212 464 l 1,4,-1
 283 505 l 1,5,-1
 414 505 l 1,6,-1
 530 438 l 1,7,-1
 530 0 l 1,8,-1
 393 0 l 1,9,-1
 393 388 l 1,10,-1
 212 388 l 1,11,-1
 212 0 l 1,0,-1
EndSplineSet
EndChar

StartChar: i
Encoding: 105 105 76
Width: 287
GlyphClass: 2
Flags: W
LayerCount: 2
Fore
SplineSet
212 500 m 1,0,-1
 212 0 l 1,1,-1
 75 0 l 1,2,-1
 75 500 l 1,3,-1
 212 500 l 1,0,-1
70 593 m 1,4,-1
 70 730 l 1,5,-1
 217 730 l 1,6,-1
 217 593 l 1,7,-1
 70 593 l 1,4,-1
EndSplineSet
EndChar

StartChar: j
Encoding: 106 106 77
Width: 287
GlyphClass: 2
Flags: W
LayerCount: 2
Fore
SplineSet
70 593 m 1,0,-1
 70 730 l 1,1,-1
 217 730 l 1,2,-1
 217 593 l 1,3,-1
 70 593 l 1,0,-1
212 500 m 1,4,-1
 212 -133 l 1,5,-1
 96 -200 l 1,6,-1
 -25 -200 l 1,7,-1
 -25 -83 l 1,8,-1
 75 -83 l 1,9,-1
 75 500 l 1,10,-1
 212 500 l 1,4,-1
EndSplineSet
EndChar

StartChar: k
Encoding: 107 107 78
Width: 551
GlyphClass: 2
Flags: W
LayerCount: 2
Fore
SplineSet
212 730 m 1,0,-1
 212 299 l 1,1,-1
 214 299 l 1,2,-1
 369 500 l 1,3,-1
 526 500 l 1,4,-1
 347 277 l 1,5,-1
 556 0 l 1,6,-1
 397 0 l 1,7,-1
 267 177 l 1,8,-1
 212 108 l 1,9,-1
 212 0 l 1,10,-1
 75 0 l 1,11,-1
 75 730 l 1,12,-1
 212 730 l 1,0,-1
EndSplineSet
EndChar

StartChar: l
Encoding: 108 108 79
Width: 327
GlyphClass: 2
Flags: W
LayerCount: 2
Fore
SplineSet
191 0 m 1,0,-1
 75 67 l 1,1,-1
 75 730 l 1,2,-1
 212 730 l 1,3,-1
 212 117 l 1,4,-1
 312 117 l 1,5,-1
 312 0 l 1,6,-1
 191 0 l 1,0,-1
EndSplineSet
EndChar

StartChar: m
Encoding: 109 109 80
Width: 853
GlyphClass: 2
Flags: W
LayerCount: 2
Fore
SplineSet
778 438 m 1,0,-1
 778 0 l 1,1,-1
 641 0 l 1,2,-1
 641 388 l 1,3,-1
 495 388 l 1,4,-1
 495 0 l 1,5,-1
 358 0 l 1,6,-1
 358 388 l 1,7,-1
 212 388 l 1,8,-1
 212 0 l 1,9,-1
 75 0 l 1,10,-1
 75 505 l 1,11,-1
 188 505 l 1,12,-1
 212 464 l 1,13,-1
 283 505 l 1,14,-1
 379 505 l 1,15,-1
 472 451 l 1,16,-1
 566 505 l 1,17,-1
 662 505 l 1,18,-1
 778 438 l 1,0,-1
EndSplineSet
EndChar

StartChar: n
Encoding: 110 110 81
Width: 595
GlyphClass: 2
Flags: W
LayerCount: 2
Fore
SplineSet
520 438 m 1,0,-1
 520 0 l 1,1,-1
 383 0 l 1,2,-1
 383 388 l 1,3,-1
 212 388 l 1,4,-1
 212 0 l 1,5,-1
 75 0 l 1,6,-1
 75 505 l 1,7,-1
 188 505 l 1,8,-1
 212 464 l 1,9,-1
 283 505 l 1,10,-1
 404 505 l 1,11,-1
 520 438 l 1,0,-1
EndSplineSet
EndChar

StartChar: o
Encoding: 111 111 82
Width: 595
GlyphClass: 2
Flags: W
LayerCount: 2
Fore
SplineSet
520 62 m 1,0,-1
 404 -5 l 1,1,-1
 191 -5 l 1,2,-1
 75 62 l 1,3,-1
 75 438 l 1,4,-1
 191 505 l 1,5,-1
 404 505 l 1,6,-1
 520 438 l 1,7,-1
 520 62 l 1,0,-1
212 388 m 1,8,-1
 212 112 l 1,9,-1
 383 112 l 1,10,-1
 383 388 l 1,11,-1
 212 388 l 1,8,-1
EndSplineSet
EndChar

StartChar: p
Encoding: 112 112 83
Width: 605
GlyphClass: 2
Flags: W
LayerCount: 2
Fore
SplineSet
414 -5 m 1,0,-1
 283 -5 l 1,1,-1
 212 36 l 1,2,-1
 212 -200 l 1,3,-1
 75 -200 l 1,4,-1
 75 505 l 1,5,-1
 188 505 l 1,6,-1
 212 464 l 1,7,-1
 283 505 l 1,8,-1
 414 505 l 1,9,-1
 530 438 l 1,10,-1
 530 62 l 1,11,-1
 414 -5 l 1,0,-1
212 388 m 1,12,-1
 212 112 l 1,13,-1
 393 112 l 1,14,-1
 393 388 l 1,15,-1
 212 388 l 1,12,-1
EndSplineSet
EndChar

StartChar: q
Encoding: 113 113 84
Width: 605
GlyphClass: 2
Flags: W
LayerCount: 2
Fore
SplineSet
322 -5 m 1,0,-1
 191 -5 l 1,1,-1
 75 62 l 1,2,-1
 75 438 l 1,3,-1
 191 505 l 1,4,-1
 322 505 l 1,5,-1
 393 464 l 1,6,-1
 464 505 l 1,7,-1
 530 505 l 1,8,-1
 530 -200 l 1,9,-1
 393 -200 l 1,10,-1
 393 36 l 1,11,-1
 322 -5 l 1,0,-1
393 112 m 1,12,-1
 393 388 l 1,13,-1
 212 388 l 1,14,-1
 212 112 l 1,15,-1
 393 112 l 1,12,-1
EndSplineSet
EndChar

StartChar: r
Encoding: 114 114 85
Width: 409
GlyphClass: 2
Flags: W
LayerCount: 2
Fore
SplineSet
384 383 m 1,0,-1
 212 383 l 1,1,-1
 212 0 l 1,2,-1
 75 0 l 1,3,-1
 75 500 l 1,4,-1
 188 500 l 1,5,-1
 212 459 l 1,6,-1
 283 500 l 1,7,-1
 384 500 l 1,8,-1
 384 383 l 1,0,-1
EndSplineSet
EndChar

StartChar: s
Encoding: 115 115 86
Width: 546
GlyphClass: 2
Flags: W
LayerCount: 2
Fore
SplineSet
471 246 m 1,0,-1
 471 67 l 1,1,-1
 355 0 l 1,2,-1
 75 0 l 1,3,-1
 75 117 l 1,4,-1
 334 117 l 1,5,-1
 334 194 l 1,6,-1
 191 194 l 1,7,-1
 75 261 l 1,8,-1
 75 433 l 1,9,-1
 191 500 l 1,10,-1
 461 500 l 1,11,-1
 461 383 l 1,12,-1
 212 383 l 1,13,-1
 212 313 l 1,14,-1
 355 313 l 1,15,-1
 471 246 l 1,0,-1
EndSplineSet
EndChar

StartChar: t
Encoding: 116 116 87
Width: 429
GlyphClass: 2
Flags: W
LayerCount: 2
Fore
SplineSet
35 383 m 1,0,-1
 35 500 l 1,1,-1
 127 500 l 1,2,-1
 127 584 l 1,3,-1
 264 663 l 1,4,-1
 264 500 l 1,5,-1
 374 500 l 1,6,-1
 374 383 l 1,7,-1
 264 383 l 1,8,-1
 264 117 l 1,9,-1
 374 117 l 1,10,-1
 374 0 l 1,11,-1
 243 0 l 1,12,-1
 127 67 l 1,13,-1
 127 383 l 1,14,-1
 35 383 l 1,0,-1
EndSplineSet
EndChar

StartChar: u
Encoding: 117 117 88
Width: 595
GlyphClass: 2
Flags: W
LayerCount: 2
Fore
SplineSet
75 62 m 1,0,-1
 75 500 l 1,1,-1
 212 500 l 1,2,-1
 212 112 l 1,3,-1
 383 112 l 1,4,-1
 383 500 l 1,5,-1
 520 500 l 1,6,-1
 520 -5 l 1,7,-1
 407 -5 l 1,8,-1
 383 36 l 1,9,-1
 312 -5 l 1,10,-1
 191 -5 l 1,11,-1
 75 62 l 1,0,-1
EndSplineSet
EndChar

StartChar: v
Encoding: 118 118 89
Width: 537
GlyphClass: 2
Flags: W
LayerCount: 2
Fore
SplineSet
152 500 m 1,0,-1
 267 172 l 1,1,-1
 269 172 l 1,2,-1
 385 500 l 1,3,-1
 522 500 l 1,4,-1
 337 0 l 1,5,-1
 200 0 l 1,6,-1
 15 500 l 1,7,-1
 152 500 l 1,0,-1
EndSplineSet
EndChar

StartChar: w
Encoding: 119 119 90
Width: 768
GlyphClass: 2
Flags: W
LayerCount: 2
Fore
SplineSet
385 316 m 1,0,-1
 383 316 l 1,1,-1
 295 0 l 1,2,-1
 153 0 l 1,3,-1
 25 500 l 1,4,-1
 152 500 l 1,5,-1
 230 181 l 1,6,-1
 232 181 l 1,7,-1
 321 500 l 1,8,-1
 447 500 l 1,9,-1
 536 181 l 1,10,-1
 538 181 l 1,11,-1
 616 500 l 1,12,-1
 743 500 l 1,13,-1
 615 0 l 1,14,-1
 473 0 l 1,15,-1
 385 316 l 1,0,-1
EndSplineSet
EndChar

StartChar: x
Encoding: 120 120 91
Width: 536
GlyphClass: 2
Flags: W
LayerCount: 2
Fore
SplineSet
15 0 m 1,0,-1
 197 255 l 1,1,-1
 21 500 l 1,2,-1
 170 500 l 1,3,-1
 268 359 l 1,4,-1
 366 500 l 1,5,-1
 515 500 l 1,6,-1
 338 255 l 1,7,-1
 521 0 l 1,8,-1
 374 0 l 1,9,-1
 268 150 l 1,10,-1
 162 0 l 1,11,-1
 15 0 l 1,0,-1
EndSplineSet
EndChar

StartChar: y
Encoding: 121 121 92
Width: 545
GlyphClass: 2
Flags: W
LayerCount: 2
Fore
SplineSet
114 -200 m 1,0,-1
 206 35 l 1,1,-1
 15 500 l 1,2,-1
 152 500 l 1,3,-1
 275 206 l 1,4,-1
 277 206 l 1,5,-1
 393 500 l 1,6,-1
 530 500 l 1,7,-1
 249 -200 l 1,8,-1
 114 -200 l 1,0,-1
EndSplineSet
EndChar

StartChar: z
Encoding: 122 122 93
Width: 476
GlyphClass: 2
Flags: W
LayerCount: 2
Fore
SplineSet
35 96 m 1,0,-1
 251 381 l 1,1,-1
 251 383 l 1,2,-1
 45 383 l 1,3,-1
 45 500 l 1,4,-1
 431 500 l 1,5,-1
 431 404 l 1,6,-1
 215 119 l 1,7,-1
 215 117 l 1,8,-1
 431 117 l 1,9,-1
 431 0 l 1,10,-1
 35 0 l 1,11,-1
 35 96 l 1,0,-1
EndSplineSet
EndChar

StartChar: braceleft
Encoding: 123 123 94
Width: 408
GlyphClass: 2
Flags: W
LayerCount: 2
Fore
SplineSet
250 225 m 1,0,-1
 250 -100 l 1,1,-1
 353 -100 l 1,2,-1
 353 -200 l 1,3,-1
 236 -200 l 1,4,-1
 120 -133 l 1,5,-1
 120 215 l 1,6,-1
 35 215 l 1,7,-1
 35 315 l 1,8,-1
 120 315 l 1,9,-1
 120 663 l 1,10,-1
 236 730 l 1,11,-1
 353 730 l 1,12,-1
 353 630 l 1,13,-1
 250 630 l 1,14,-1
 250 305 l 1,15,-1
 183 266 l 1,16,-1
 183 264 l 1,17,-1
 250 225 l 1,0,-1
EndSplineSet
EndChar

StartChar: bar
Encoding: 124 124 95
Width: 360
GlyphClass: 2
Flags: W
LayerCount: 2
Fore
SplineSet
115 -200 m 1,0,-1
 115 730 l 1,1,-1
 245 730 l 1,2,-1
 245 -200 l 1,3,-1
 115 -200 l 1,0,-1
EndSplineSet
EndChar

StartChar: braceright
Encoding: 125 125 96
Width: 408
GlyphClass: 2
Flags: W
LayerCount: 2
Fore
SplineSet
158 -100 m 1,0,-1
 158 225 l 1,1,-1
 225 264 l 1,2,-1
 225 266 l 1,3,-1
 158 305 l 1,4,-1
 158 630 l 1,5,-1
 55 630 l 1,6,-1
 55 730 l 1,7,-1
 172 730 l 1,8,-1
 288 663 l 1,9,-1
 288 315 l 1,10,-1
 373 315 l 1,11,-1
 373 215 l 1,12,-1
 288 215 l 1,13,-1
 288 -133 l 1,14,-1
 172 -200 l 1,15,-1
 55 -200 l 1,16,-1
 55 -100 l 1,17,-1
 158 -100 l 1,0,-1
EndSplineSet
EndChar

StartChar: asciitilde
Encoding: 126 126 97
Width: 672
GlyphClass: 2
Flags: W
LayerCount: 2
Fore
SplineSet
247 255 m 1,0,-1
 172 255 l 1,1,-1
 172 173 l 1,2,-1
 55 173 l 1,3,-1
 55 305 l 1,4,-1
 171 372 l 1,5,-1
 284 372 l 1,6,-1
 425 290 l 1,7,-1
 500 290 l 1,8,-1
 500 372 l 1,9,-1
 617 372 l 1,10,-1
 617 240 l 1,11,-1
 501 173 l 1,12,-1
 388 173 l 1,13,-1
 247 255 l 1,0,-1
EndSplineSet
EndChar

StartChar: exclamdown
Encoding: 161 161 99
Width: 380
GlyphClass: 2
Flags: W
LayerCount: 2
Fore
SplineSet
95 310 m 1,0,-1
 95 500 l 1,1,-1
 285 500 l 1,2,-1
 285 310 l 1,3,-1
 95 310 l 1,0,-1
104 -230 m 1,4,-1
 130 212 l 1,5,-1
 250 212 l 1,6,-1
 276 -230 l 1,7,-1
 104 -230 l 1,4,-1
EndSplineSet
EndChar

StartChar: cent
Encoding: 162 162 100
Width: 525
GlyphClass: 2
Flags: W
LayerCount: 2
Fore
SplineSet
378 500 m 1,0,-1
 470 500 l 1,1,-1
 470 383 l 1,2,-1
 212 383 l 1,3,-1
 212 117 l 1,4,-1
 470 117 l 1,5,-1
 470 0 l 1,6,-1
 378 0 l 1,7,-1
 378 -118 l 1,8,-1
 262 -118 l 1,9,-1
 262 0 l 1,10,-1
 191 0 l 1,11,-1
 75 67 l 1,12,-1
 75 433 l 1,13,-1
 191 500 l 1,14,-1
 262 500 l 1,15,-1
 262 618 l 1,16,-1
 378 618 l 1,17,-1
 378 500 l 1,0,-1
EndSplineSet
EndChar

StartChar: sterling
Encoding: 163 163 101
Width: 652
GlyphClass: 2
Flags: W
LayerCount: 2
Fore
SplineSet
371 380 m 1,0,-1
 371 276 l 1,1,-1
 252 276 l 1,2,-1
 252 120 l 1,3,-1
 467 120 l 1,4,-1
 467 210 l 1,5,-1
 607 210 l 1,6,-1
 607 67 l 1,7,-1
 491 0 l 1,8,-1
 112 0 l 1,9,-1
 112 276 l 1,10,-1
 35 276 l 1,11,-1
 35 380 l 1,12,-1
 112 380 l 1,13,-1
 112 638 l 1,14,-1
 228 705 l 1,15,-1
 441 705 l 1,16,-1
 557 638 l 1,17,-1
 557 495 l 1,18,-1
 417 495 l 1,19,-1
 417 585 l 1,20,-1
 252 585 l 1,21,-1
 252 380 l 1,22,-1
 371 380 l 1,0,-1
EndSplineSet
EndChar

StartChar: yen
Encoding: 165 165 102
Width: 661
GlyphClass: 2
Flags: W
LayerCount: 2
Fore
SplineSet
260 0 m 1,0,-1
 260 128 l 1,1,-1
 62 128 l 1,2,-1
 62 232 l 1,3,-1
 260 232 l 1,4,-1
 260 293 l 1,5,-1
 62 293 l 1,6,-1
 62 397 l 1,7,-1
 205 397 l 1,8,-1
 35 700 l 1,9,-1
 187 700 l 1,10,-1
 329 438 l 1,11,-1
 331 438 l 1,12,-1
 474 700 l 1,13,-1
 626 700 l 1,14,-1
 455 397 l 1,15,-1
 598 397 l 1,16,-1
 598 293 l 1,17,-1
 400 293 l 1,18,-1
 400 232 l 1,19,-1
 598 232 l 1,20,-1
 598 128 l 1,21,-1
 400 128 l 1,22,-1
 400 0 l 1,23,-1
 260 0 l 1,0,-1
EndSplineSet
EndChar

StartChar: brokenbar
Encoding: 166 166 103
Width: 360
GlyphClass: 2
Flags: W
LayerCount: 2
Fore
SplineSet
115 -200 m 1,0,-1
 115 202 l 1,1,-1
 245 202 l 1,2,-1
 245 -200 l 1,3,-1
 115 -200 l 1,0,-1
115 328 m 1,4,-1
 115 730 l 1,5,-1
 245 730 l 1,6,-1
 245 328 l 1,7,-1
 115 328 l 1,4,-1
EndSplineSet
EndChar

StartChar: section
Encoding: 167 167 104
Width: 663
GlyphClass: 2
Flags: W
LayerCount: 2
Fore
SplineSet
420 178 m 1,0,-1
 420 327 l 1,1,-1
 253 327 l 1,2,-1
 253 178 l 1,3,-1
 420 178 l 1,0,-1
113 336 m 1,4,-1
 200 386 l 1,5,-1
 200 388 l 1,6,-1
 113 438 l 1,7,-1
 113 638 l 1,8,-1
 229 705 l 1,9,-1
 462 705 l 1,10,-1
 578 638 l 1,11,-1
 578 505 l 1,12,-1
 438 505 l 1,13,-1
 438 585 l 1,14,-1
 253 585 l 1,15,-1
 253 447 l 1,16,-1
 444 447 l 1,17,-1
 560 380 l 1,18,-1
 560 169 l 1,19,-1
 473 119 l 1,20,-1
 473 117 l 1,21,-1
 560 67 l 1,22,-1
 560 -133 l 1,23,-1
 444 -200 l 1,24,-1
 201 -200 l 1,25,-1
 85 -133 l 1,26,-1
 85 0 l 1,27,-1
 225 0 l 1,28,-1
 225 -80 l 1,29,-1
 420 -80 l 1,30,-1
 420 58 l 1,31,-1
 229 58 l 1,32,-1
 113 125 l 1,33,-1
 113 336 l 1,4,-1
EndSplineSet
EndChar

StartChar: dieresis
Encoding: 168 168 105
Width: 544
GlyphClass: 2
Flags: W
LayerCount: 2
Fore
SplineSet
80 595 m 1,0,-1
 80 730 l 1,1,-1
 215 730 l 1,2,-1
 215 595 l 1,3,-1
 80 595 l 1,0,-1
319 595 m 1,4,-1
 319 730 l 1,5,-1
 454 730 l 1,6,-1
 454 595 l 1,7,-1
 319 595 l 1,4,-1
EndSplineSet
EndChar

StartChar: copyright
Encoding: 169 169 106
Width: 850
GlyphClass: 2
Flags: W
LayerCount: 2
Fore
SplineSet
765 62 m 1,0,-1
 649 -5 l 1,1,-1
 201 -5 l 1,2,-1
 85 62 l 1,3,-1
 85 638 l 1,4,-1
 201 705 l 1,5,-1
 649 705 l 1,6,-1
 765 638 l 1,7,-1
 765 62 l 1,0,-1
205 605 m 1,8,-1
 205 95 l 1,9,-1
 645 95 l 1,10,-1
 645 605 l 1,11,-1
 205 605 l 1,8,-1
482 281 m 1,12,-1
 591 281 l 1,13,-1
 591 177 l 1,14,-1
 518 135 l 1,15,-1
 332 135 l 1,16,-1
 258 177 l 1,17,-1
 258 523 l 1,18,-1
 332 565 l 1,19,-1
 518 565 l 1,20,-1
 591 523 l 1,21,-1
 591 419 l 1,22,-1
 482 419 l 1,23,-1
 482 472 l 1,24,-1
 367 472 l 1,25,-1
 367 228 l 1,26,-1
 482 228 l 1,27,-1
 482 281 l 1,12,-1
EndSplineSet
EndChar

StartChar: ordfeminine
Encoding: 170 170 107
Width: 565
GlyphClass: 2
Flags: W
LayerCount: 2
Fore
SplineSet
212 397 m 1,0,-1
 212 310 l 1,1,-1
 353 310 l 1,2,-1
 353 397 l 1,3,-1
 212 397 l 1,0,-1
191 195 m 1,4,-1
 75 262 l 1,5,-1
 75 435 l 1,6,-1
 191 502 l 1,7,-1
 353 502 l 1,8,-1
 353 583 l 1,9,-1
 125 583 l 1,10,-1
 125 700 l 1,11,-1
 374 700 l 1,12,-1
 490 633 l 1,13,-1
 490 195 l 1,14,-1
 424 195 l 1,15,-1
 353 236 l 1,16,-1
 282 195 l 1,17,-1
 191 195 l 1,4,-1
75 0 m 1,18,-1
 75 117 l 1,19,-1
 490 117 l 1,20,-1
 490 0 l 1,21,-1
 75 0 l 1,18,-1
EndSplineSet
EndChar

StartChar: guillemotleft
Encoding: 171 171 108
Width: 690
GlyphClass: 2
Flags: W
LayerCount: 2
Fore
SplineSet
345 137 m 1,0,-1
 345 0 l 1,1,-1
 85 190 l 1,2,-1
 85 312 l 1,3,-1
 345 502 l 1,4,-1
 345 365 l 1,5,-1
 182 252 l 1,6,-1
 182 251 l 1,7,-1
 345 137 l 1,0,-1
605 137 m 1,8,-1
 605 0 l 1,9,-1
 345 190 l 1,10,-1
 345 312 l 1,11,-1
 605 502 l 1,12,-1
 605 365 l 1,13,-1
 442 252 l 1,14,-1
 442 251 l 1,15,-1
 605 137 l 1,8,-1
EndSplineSet
EndChar

StartChar: registered
Encoding: 174 174 109
Width: 850
GlyphClass: 2
Flags: W
LayerCount: 2
Fore
SplineSet
601 138 m 1,0,-1
 482 138 l 1,1,-1
 399 283 l 1,2,-1
 376 283 l 1,3,-1
 376 138 l 1,4,-1
 267 138 l 1,5,-1
 267 562 l 1,6,-1
 508 562 l 1,7,-1
 582 520 l 1,8,-1
 582 326 l 1,9,-1
 514 286 l 1,10,-1
 601 138 l 1,0,-1
376 469 m 1,11,-1
 376 376 l 1,12,-1
 473 376 l 1,13,-1
 473 469 l 1,14,-1
 376 469 l 1,11,-1
765 62 m 1,15,-1
 649 -5 l 1,16,-1
 201 -5 l 1,17,-1
 85 62 l 1,18,-1
 85 638 l 1,19,-1
 201 705 l 1,20,-1
 649 705 l 1,21,-1
 765 638 l 1,22,-1
 765 62 l 1,15,-1
205 605 m 1,23,-1
 205 95 l 1,24,-1
 645 95 l 1,25,-1
 645 605 l 1,26,-1
 205 605 l 1,23,-1
EndSplineSet
EndChar

StartChar: macron
Encoding: 175 175 110
Width: 599
GlyphClass: 2
Flags: W
LayerCount: 2
Fore
SplineSet
144 600 m 1,0,-1
 144 697 l 1,1,-1
 455 697 l 1,2,-1
 455 600 l 1,3,-1
 144 600 l 1,0,-1
EndSplineSet
EndChar

StartChar: degree
Encoding: 176 176 111
Width: 495
GlyphClass: 2
Flags: W
LayerCount: 2
Fore
SplineSet
430 424 m 1,0,-1
 314 357 l 1,1,-1
 181 357 l 1,2,-1
 65 424 l 1,3,-1
 65 643 l 1,4,-1
 181 710 l 1,5,-1
 314 710 l 1,6,-1
 430 643 l 1,7,-1
 430 424 l 1,0,-1
186 599 m 1,8,-1
 186 468 l 1,9,-1
 309 468 l 1,10,-1
 309 599 l 1,11,-1
 186 599 l 1,8,-1
EndSplineSet
EndChar

StartChar: plusminus
Encoding: 177 177 112
Width: 690
GlyphClass: 2
Flags: W
LayerCount: 2
Fore
SplineSet
85 447 m 1,0,-1
 278 447 l 1,1,-1
 278 580 l 1,2,-1
 412 580 l 1,3,-1
 412 447 l 1,4,-1
 605 447 l 1,5,-1
 605 313 l 1,6,-1
 412 313 l 1,7,-1
 412 180 l 1,8,-1
 278 180 l 1,9,-1
 278 313 l 1,10,-1
 85 313 l 1,11,-1
 85 447 l 1,0,-1
605 134 m 1,12,-1
 605 0 l 1,13,-1
 85 0 l 1,14,-1
 85 134 l 1,15,-1
 605 134 l 1,12,-1
EndSplineSet
EndChar

StartChar: acute
Encoding: 180 180 113
Width: 500
GlyphClass: 2
Flags: W
LayerCount: 2
Fore
SplineSet
165 590 m 1,0,-1
 259 718 l 1,1,-1
 429 718 l 1,2,-1
 285 590 l 1,3,-1
 165 590 l 1,0,-1
EndSplineSet
EndChar

StartChar: mu
Encoding: 181 181 114
Width: 618
GlyphClass: 2
Flags: W
LayerCount: 2
Fore
SplineSet
212 -188 m 1,0,-1
 75 -188 l 1,1,-1
 75 500 l 1,2,-1
 212 500 l 1,3,-1
 212 117 l 1,4,-1
 383 117 l 1,5,-1
 383 500 l 1,6,-1
 520 500 l 1,7,-1
 520 117 l 1,8,-1
 603 117 l 1,9,-1
 603 0 l 1,10,-1
 407 0 l 1,11,-1
 383 41 l 1,12,-1
 312 0 l 1,13,-1
 212 0 l 1,14,-1
 212 -188 l 1,0,-1
EndSplineSet
EndChar

StartChar: paragraph
Encoding: 182 182 115
Width: 735
GlyphClass: 2
Flags: W
LayerCount: 2
Fore
SplineSet
513 -200 m 1,0,-1
 513 583 l 1,1,-1
 426 583 l 1,2,-1
 426 -200 l 1,3,-1
 289 -200 l 1,4,-1
 289 219 l 1,5,-1
 171 219 l 1,6,-1
 55 286 l 1,7,-1
 55 633 l 1,8,-1
 171 700 l 1,9,-1
 650 700 l 1,10,-1
 650 -200 l 1,11,-1
 513 -200 l 1,0,-1
EndSplineSet
EndChar

StartChar: periodcentered
Encoding: 183 183 116
Width: 380
GlyphClass: 2
Flags: W
LayerCount: 2
Fore
SplineSet
95 264 m 1,0,-1
 95 454 l 1,1,-1
 285 454 l 1,2,-1
 285 264 l 1,3,-1
 95 264 l 1,0,-1
EndSplineSet
EndChar

StartChar: cedilla
Encoding: 184 184 117
Width: 578
GlyphClass: 2
Flags: W
LayerCount: 2
Fore
SplineSet
255 0 m 1,0,-1
 348 0 l 1,1,-1
 321 -47 l 1,2,-1
 387 -85 l 1,3,-1
 387 -179 l 1,4,-1
 301 -229 l 1,5,-1
 191 -229 l 1,6,-1
 191 -149 l 1,7,-1
 290 -149 l 1,8,-1
 290 -104 l 1,9,-1
 195 -104 l 1,10,-1
 255 0 l 1,0,-1
EndSplineSet
EndChar

StartChar: ordmasculine
Encoding: 186 186 118
Width: 595
GlyphClass: 2
Flags: W
LayerCount: 2
Fore
SplineSet
520 262 m 1,0,-1
 404 195 l 1,1,-1
 191 195 l 1,2,-1
 75 262 l 1,3,-1
 75 638 l 1,4,-1
 191 705 l 1,5,-1
 404 705 l 1,6,-1
 520 638 l 1,7,-1
 520 262 l 1,0,-1
212 588 m 1,8,-1
 212 312 l 1,9,-1
 383 312 l 1,10,-1
 383 588 l 1,11,-1
 212 588 l 1,8,-1
75 0 m 1,12,-1
 75 117 l 1,13,-1
 520 117 l 1,14,-1
 520 0 l 1,15,-1
 75 0 l 1,12,-1
EndSplineSet
EndChar

StartChar: guillemotright
Encoding: 187 187 119
Width: 690
GlyphClass: 2
Flags: W
LayerCount: 2
Fore
SplineSet
345 0 m 1,0,-1
 345 137 l 1,1,-1
 508 251 l 1,2,-1
 508 252 l 1,3,-1
 345 365 l 1,4,-1
 345 502 l 1,5,-1
 605 312 l 1,6,-1
 605 190 l 1,7,-1
 345 0 l 1,0,-1
85 0 m 1,8,-1
 85 137 l 1,9,-1
 248 251 l 1,10,-1
 248 252 l 1,11,-1
 85 365 l 1,12,-1
 85 502 l 1,13,-1
 345 312 l 1,14,-1
 345 190 l 1,15,-1
 85 0 l 1,8,-1
EndSplineSet
EndChar

StartChar: questiondown
Encoding: 191 191 120
Width: 590
GlyphClass: 2
Flags: W
LayerCount: 2
Fore
SplineSet
273 124 m 1,0,-1
 282 212 l 1,1,-1
 392 212 l 1,2,-1
 402 71 l 1,3,-1
 286 4 l 1,4,-1
 225 4 l 1,5,-1
 225 -110 l 1,6,-1
 365 -110 l 1,7,-1
 365 -20 l 1,8,-1
 505 -20 l 1,9,-1
 505 -163 l 1,10,-1
 389 -230 l 1,11,-1
 201 -230 l 1,12,-1
 85 -163 l 1,13,-1
 85 57 l 1,14,-1
 201 124 l 1,15,-1
 273 124 l 1,0,-1
432 500 m 1,16,-1
 432 310 l 1,17,-1
 242 310 l 1,18,-1
 242 500 l 1,19,-1
 432 500 l 1,16,-1
EndSplineSet
EndChar

StartChar: Agrave
Encoding: 192 192 121
Width: 674
GlyphClass: 2
Flags: W
LayerCount: 2
Fore
SplineSet
409 700 m 1,0,-1
 659 0 l 1,1,-1
 521 0 l 1,2,-1
 468 151 l 1,3,-1
 206 151 l 1,4,-1
 153 0 l 1,5,-1
 15 0 l 1,6,-1
 265 700 l 1,7,-1
 409 700 l 1,0,-1
336 524 m 1,8,-1
 248 271 l 1,9,-1
 425 271 l 1,10,-1
 338 524 l 1,11,-1
 336 524 l 1,8,-1
335 913 m 1,12,-1
 429 785 l 1,13,-1
 309 785 l 1,14,-1
 165 913 l 1,15,-1
 335 913 l 1,12,-1
EndSplineSet
EndChar

StartChar: Aacute
Encoding: 193 193 122
Width: 674
GlyphClass: 2
Flags: W
LayerCount: 2
Fore
SplineSet
409 700 m 1,0,-1
 659 0 l 1,1,-1
 521 0 l 1,2,-1
 468 151 l 1,3,-1
 206 151 l 1,4,-1
 153 0 l 1,5,-1
 15 0 l 1,6,-1
 265 700 l 1,7,-1
 409 700 l 1,0,-1
336 524 m 1,8,-1
 248 271 l 1,9,-1
 425 271 l 1,10,-1
 338 524 l 1,11,-1
 336 524 l 1,8,-1
265 785 m 1,12,-1
 359 913 l 1,13,-1
 529 913 l 1,14,-1
 385 785 l 1,15,-1
 265 785 l 1,12,-1
EndSplineSet
EndChar

StartChar: Acircumflex
Encoding: 194 194 123
Width: 674
GlyphClass: 2
Flags: W
LayerCount: 2
Fore
SplineSet
409 700 m 1,0,-1
 659 0 l 1,1,-1
 521 0 l 1,2,-1
 468 151 l 1,3,-1
 206 151 l 1,4,-1
 153 0 l 1,5,-1
 15 0 l 1,6,-1
 265 700 l 1,7,-1
 409 700 l 1,0,-1
336 524 m 1,8,-1
 248 271 l 1,9,-1
 425 271 l 1,10,-1
 338 524 l 1,11,-1
 336 524 l 1,8,-1
247 933 m 1,12,-1
 437 933 l 1,13,-1
 538 785 l 1,14,-1
 423 785 l 1,15,-1
 342 865 l 1,16,-1
 262 785 l 1,17,-1
 147 785 l 1,18,-1
 247 933 l 1,12,-1
EndSplineSet
EndChar

StartChar: Atilde
Encoding: 195 195 124
Width: 674
GlyphClass: 2
Flags: W
LayerCount: 2
Fore
SplineSet
409 700 m 1,0,-1
 659 0 l 1,1,-1
 521 0 l 1,2,-1
 468 151 l 1,3,-1
 206 151 l 1,4,-1
 153 0 l 1,5,-1
 15 0 l 1,6,-1
 265 700 l 1,7,-1
 409 700 l 1,0,-1
336 524 m 1,8,-1
 248 271 l 1,9,-1
 425 271 l 1,10,-1
 338 524 l 1,11,-1
 336 524 l 1,8,-1
261 867 m 1,12,-1
 257 867 l 1,13,-1
 257 785 l 1,14,-1
 159 785 l 1,15,-1
 159 909 l 1,16,-1
 253 964 l 1,17,-1
 281 964 l 1,18,-1
 423 882 l 1,19,-1
 427 882 l 1,20,-1
 427 964 l 1,21,-1
 525 964 l 1,22,-1
 525 840 l 1,23,-1
 431 785 l 1,24,-1
 403 785 l 1,25,-1
 261 867 l 1,12,-1
EndSplineSet
EndChar

StartChar: Adieresis
Encoding: 196 196 125
Width: 674
GlyphClass: 2
Flags: W
LayerCount: 2
Fore
SplineSet
409 700 m 1,0,-1
 659 0 l 1,1,-1
 521 0 l 1,2,-1
 468 151 l 1,3,-1
 206 151 l 1,4,-1
 153 0 l 1,5,-1
 15 0 l 1,6,-1
 265 700 l 1,7,-1
 409 700 l 1,0,-1
336 524 m 1,8,-1
 248 271 l 1,9,-1
 425 271 l 1,10,-1
 338 524 l 1,11,-1
 336 524 l 1,8,-1
155 785 m 1,12,-1
 155 920 l 1,13,-1
 290 920 l 1,14,-1
 290 785 l 1,15,-1
 155 785 l 1,12,-1
394 785 m 1,16,-1
 394 920 l 1,17,-1
 529 920 l 1,18,-1
 529 785 l 1,19,-1
 394 785 l 1,16,-1
EndSplineSet
EndChar

StartChar: Aring
Encoding: 197 197 126
Width: 674
GlyphClass: 2
Flags: W
LayerCount: 2
Fore
SplineSet
498 657 m 1,0,-1
 437 622 l 1,1,-1
 659 0 l 1,2,-1
 521 0 l 1,3,-1
 468 151 l 1,4,-1
 206 151 l 1,5,-1
 153 0 l 1,6,-1
 15 0 l 1,7,-1
 236 620 l 1,8,-1
 173 657 l 1,9,-1
 173 866 l 1,10,-1
 255 913 l 1,11,-1
 416 913 l 1,12,-1
 498 866 l 1,13,-1
 498 657 l 1,0,-1
336 524 m 1,14,-1
 248 271 l 1,15,-1
 425 271 l 1,16,-1
 338 524 l 1,17,-1
 336 524 l 1,14,-1
278 818 m 1,18,-1
 278 705 l 1,19,-1
 393 705 l 1,20,-1
 393 818 l 1,21,-1
 278 818 l 1,18,-1
EndSplineSet
EndChar

StartChar: AE
Encoding: 198 198 127
Width: 952
GlyphClass: 2
Flags: W
LayerCount: 2
Fore
SplineSet
628 300 m 1,0,-1
 628 120 l 1,1,-1
 907 120 l 1,2,-1
 907 0 l 1,3,-1
 488 0 l 1,4,-1
 488 151 l 1,5,-1
 228 151 l 1,6,-1
 123 0 l 1,7,-1
 -25 0 l 1,8,-1
 466 700 l 1,9,-1
 907 700 l 1,10,-1
 907 580 l 1,11,-1
 628 580 l 1,12,-1
 628 420 l 1,13,-1
 847 420 l 1,14,-1
 847 300 l 1,15,-1
 628 300 l 1,0,-1
486 524 m 1,16,-1
 311 271 l 1,17,-1
 488 271 l 1,18,-1
 488 524 l 1,19,-1
 486 524 l 1,16,-1
EndSplineSet
EndChar

StartChar: Ccedilla
Encoding: 199 199 128
Width: 675
GlyphClass: 2
Flags: W
LayerCount: 2
Fore
SplineSet
460 205 m 1,0,-1
 600 205 l 1,1,-1
 600 62 l 1,2,-1
 484 -5 l 1,3,-1
 387 -5 l 1,4,-1
 363 -47 l 1,5,-1
 429 -85 l 1,6,-1
 429 -179 l 1,7,-1
 343 -229 l 1,8,-1
 233 -229 l 1,9,-1
 233 -149 l 1,10,-1
 332 -149 l 1,11,-1
 332 -104 l 1,12,-1
 237 -104 l 1,13,-1
 294 -5 l 1,14,-1
 201 -5 l 1,15,-1
 85 62 l 1,16,-1
 85 638 l 1,17,-1
 201 705 l 1,18,-1
 484 705 l 1,19,-1
 600 638 l 1,20,-1
 600 495 l 1,21,-1
 460 495 l 1,22,-1
 460 585 l 1,23,-1
 225 585 l 1,24,-1
 225 115 l 1,25,-1
 460 115 l 1,26,-1
 460 205 l 1,0,-1
EndSplineSet
EndChar

StartChar: Egrave
Encoding: 200 200 129
Width: 549
GlyphClass: 2
Flags: W
LayerCount: 2
Fore
SplineSet
225 300 m 1,0,-1
 225 120 l 1,1,-1
 504 120 l 1,2,-1
 504 0 l 1,3,-1
 85 0 l 1,4,-1
 85 700 l 1,5,-1
 504 700 l 1,6,-1
 504 580 l 1,7,-1
 225 580 l 1,8,-1
 225 420 l 1,9,-1
 444 420 l 1,10,-1
 444 300 l 1,11,-1
 225 300 l 1,0,-1
305 913 m 1,12,-1
 399 785 l 1,13,-1
 279 785 l 1,14,-1
 135 913 l 1,15,-1
 305 913 l 1,12,-1
EndSplineSet
EndChar

StartChar: Eacute
Encoding: 201 201 130
Width: 549
GlyphClass: 2
Flags: W
LayerCount: 2
Fore
SplineSet
225 300 m 1,0,-1
 225 120 l 1,1,-1
 504 120 l 1,2,-1
 504 0 l 1,3,-1
 85 0 l 1,4,-1
 85 700 l 1,5,-1
 504 700 l 1,6,-1
 504 580 l 1,7,-1
 225 580 l 1,8,-1
 225 420 l 1,9,-1
 444 420 l 1,10,-1
 444 300 l 1,11,-1
 225 300 l 1,0,-1
205 785 m 1,12,-1
 299 913 l 1,13,-1
 469 913 l 1,14,-1
 325 785 l 1,15,-1
 205 785 l 1,12,-1
EndSplineSet
EndChar

StartChar: Ecircumflex
Encoding: 202 202 131
Width: 549
GlyphClass: 2
Flags: W
LayerCount: 2
Fore
SplineSet
225 300 m 1,0,-1
 225 120 l 1,1,-1
 504 120 l 1,2,-1
 504 0 l 1,3,-1
 85 0 l 1,4,-1
 85 700 l 1,5,-1
 504 700 l 1,6,-1
 504 580 l 1,7,-1
 225 580 l 1,8,-1
 225 420 l 1,9,-1
 444 420 l 1,10,-1
 444 300 l 1,11,-1
 225 300 l 1,0,-1
204 933 m 1,12,-1
 394 933 l 1,13,-1
 495 785 l 1,14,-1
 380 785 l 1,15,-1
 299 865 l 1,16,-1
 219 785 l 1,17,-1
 104 785 l 1,18,-1
 204 933 l 1,12,-1
EndSplineSet
EndChar

StartChar: Edieresis
Encoding: 203 203 132
Width: 549
GlyphClass: 2
Flags: W
LayerCount: 2
Fore
SplineSet
225 300 m 1,0,-1
 225 120 l 1,1,-1
 504 120 l 1,2,-1
 504 0 l 1,3,-1
 85 0 l 1,4,-1
 85 700 l 1,5,-1
 504 700 l 1,6,-1
 504 580 l 1,7,-1
 225 580 l 1,8,-1
 225 420 l 1,9,-1
 444 420 l 1,10,-1
 444 300 l 1,11,-1
 225 300 l 1,0,-1
110 785 m 1,12,-1
 110 920 l 1,13,-1
 245 920 l 1,14,-1
 245 785 l 1,15,-1
 110 785 l 1,12,-1
349 785 m 1,16,-1
 349 920 l 1,17,-1
 484 920 l 1,18,-1
 484 785 l 1,19,-1
 349 785 l 1,16,-1
EndSplineSet
EndChar

StartChar: Igrave
Encoding: 204 204 133
Width: 310
GlyphClass: 2
Flags: W
LayerCount: 2
Fore
SplineSet
85 0 m 1,0,-1
 85 700 l 1,1,-1
 225 700 l 1,2,-1
 225 0 l 1,3,-1
 85 0 l 1,0,-1
150 913 m 1,4,-1
 244 785 l 1,5,-1
 124 785 l 1,6,-1
 -20 913 l 1,7,-1
 150 913 l 1,4,-1
EndSplineSet
EndChar

StartChar: Iacute
Encoding: 205 205 134
Width: 310
GlyphClass: 2
Flags: W
LayerCount: 2
Fore
SplineSet
85 0 m 1,0,-1
 85 700 l 1,1,-1
 225 700 l 1,2,-1
 225 0 l 1,3,-1
 85 0 l 1,0,-1
65 785 m 1,4,-1
 159 913 l 1,5,-1
 329 913 l 1,6,-1
 185 785 l 1,7,-1
 65 785 l 1,4,-1
EndSplineSet
EndChar

StartChar: Icircumflex
Encoding: 206 206 135
Width: 310
GlyphClass: 2
Flags: W
LayerCount: 2
Fore
SplineSet
85 0 m 1,0,-1
 85 700 l 1,1,-1
 225 700 l 1,2,-1
 225 0 l 1,3,-1
 85 0 l 1,0,-1
60 933 m 1,4,-1
 250 933 l 1,5,-1
 351 785 l 1,6,-1
 236 785 l 1,7,-1
 155 865 l 1,8,-1
 75 785 l 1,9,-1
 -40 785 l 1,10,-1
 60 933 l 1,4,-1
EndSplineSet
EndChar

StartChar: Idieresis
Encoding: 207 207 136
Width: 310
GlyphClass: 2
Flags: W
LayerCount: 2
Fore
SplineSet
85 0 m 1,0,-1
 85 700 l 1,1,-1
 225 700 l 1,2,-1
 225 0 l 1,3,-1
 85 0 l 1,0,-1
-32 785 m 1,4,-1
 -32 920 l 1,5,-1
 103 920 l 1,6,-1
 103 785 l 1,7,-1
 -32 785 l 1,4,-1
207 785 m 1,8,-1
 207 920 l 1,9,-1
 342 920 l 1,10,-1
 342 785 l 1,11,-1
 207 785 l 1,8,-1
EndSplineSet
EndChar

StartChar: Eth
Encoding: 208 208 137
Width: 715
GlyphClass: 2
Flags: W
LayerCount: 2
Fore
SplineSet
15 375 m 1,0,-1
 85 375 l 1,1,-1
 85 700 l 1,2,-1
 514 700 l 1,3,-1
 630 633 l 1,4,-1
 630 67 l 1,5,-1
 514 0 l 1,6,-1
 85 0 l 1,7,-1
 85 281 l 1,8,-1
 15 281 l 1,9,-1
 15 375 l 1,0,-1
225 580 m 1,10,-1
 225 375 l 1,11,-1
 321 375 l 1,12,-1
 321 281 l 1,13,-1
 225 281 l 1,14,-1
 225 120 l 1,15,-1
 490 120 l 1,16,-1
 490 580 l 1,17,-1
 225 580 l 1,10,-1
EndSplineSet
EndChar

StartChar: Ntilde
Encoding: 209 209 138
Width: 745
GlyphClass: 2
Flags: W
LayerCount: 2
Fore
SplineSet
225 453 m 1,0,-1
 225 0 l 1,1,-1
 85 0 l 1,2,-1
 85 700 l 1,3,-1
 216 700 l 1,4,-1
 518 247 l 1,5,-1
 520 247 l 1,6,-1
 520 700 l 1,7,-1
 660 700 l 1,8,-1
 660 0 l 1,9,-1
 529 0 l 1,10,-1
 227 453 l 1,11,-1
 225 453 l 1,0,-1
292 867 m 1,12,-1
 288 867 l 1,13,-1
 288 785 l 1,14,-1
 190 785 l 1,15,-1
 190 909 l 1,16,-1
 284 964 l 1,17,-1
 312 964 l 1,18,-1
 454 882 l 1,19,-1
 458 882 l 1,20,-1
 458 964 l 1,21,-1
 556 964 l 1,22,-1
 556 840 l 1,23,-1
 462 785 l 1,24,-1
 434 785 l 1,25,-1
 292 867 l 1,12,-1
EndSplineSet
EndChar

StartChar: Ograve
Encoding: 210 210 139
Width: 715
GlyphClass: 2
Flags: W
LayerCount: 2
Fore
SplineSet
630 62 m 1,0,-1
 514 -5 l 1,1,-1
 201 -5 l 1,2,-1
 85 62 l 1,3,-1
 85 638 l 1,4,-1
 201 705 l 1,5,-1
 514 705 l 1,6,-1
 630 638 l 1,7,-1
 630 62 l 1,0,-1
225 585 m 1,8,-1
 225 115 l 1,9,-1
 490 115 l 1,10,-1
 490 585 l 1,11,-1
 225 585 l 1,8,-1
355 913 m 1,12,-1
 449 785 l 1,13,-1
 329 785 l 1,14,-1
 185 913 l 1,15,-1
 355 913 l 1,12,-1
EndSplineSet
EndChar

StartChar: Oacute
Encoding: 211 211 140
Width: 715
GlyphClass: 2
Flags: W
LayerCount: 2
Fore
SplineSet
630 62 m 1,0,-1
 514 -5 l 1,1,-1
 201 -5 l 1,2,-1
 85 62 l 1,3,-1
 85 638 l 1,4,-1
 201 705 l 1,5,-1
 514 705 l 1,6,-1
 630 638 l 1,7,-1
 630 62 l 1,0,-1
225 585 m 1,8,-1
 225 115 l 1,9,-1
 490 115 l 1,10,-1
 490 585 l 1,11,-1
 225 585 l 1,8,-1
265 785 m 1,12,-1
 359 913 l 1,13,-1
 529 913 l 1,14,-1
 385 785 l 1,15,-1
 265 785 l 1,12,-1
EndSplineSet
EndChar

StartChar: Ocircumflex
Encoding: 212 212 141
Width: 715
GlyphClass: 2
Flags: W
LayerCount: 2
Fore
SplineSet
630 62 m 1,0,-1
 514 -5 l 1,1,-1
 201 -5 l 1,2,-1
 85 62 l 1,3,-1
 85 638 l 1,4,-1
 201 705 l 1,5,-1
 514 705 l 1,6,-1
 630 638 l 1,7,-1
 630 62 l 1,0,-1
225 585 m 1,8,-1
 225 115 l 1,9,-1
 490 115 l 1,10,-1
 490 585 l 1,11,-1
 225 585 l 1,8,-1
272 933 m 1,12,-1
 462 933 l 1,13,-1
 563 785 l 1,14,-1
 448 785 l 1,15,-1
 367 865 l 1,16,-1
 287 785 l 1,17,-1
 172 785 l 1,18,-1
 272 933 l 1,12,-1
EndSplineSet
EndChar

StartChar: Otilde
Encoding: 213 213 142
Width: 715
GlyphClass: 2
Flags: W
LayerCount: 2
Fore
SplineSet
630 62 m 1,0,-1
 514 -5 l 1,1,-1
 201 -5 l 1,2,-1
 85 62 l 1,3,-1
 85 638 l 1,4,-1
 201 705 l 1,5,-1
 514 705 l 1,6,-1
 630 638 l 1,7,-1
 630 62 l 1,0,-1
225 585 m 1,8,-1
 225 115 l 1,9,-1
 490 115 l 1,10,-1
 490 585 l 1,11,-1
 225 585 l 1,8,-1
281 867 m 1,12,-1
 277 867 l 1,13,-1
 277 785 l 1,14,-1
 179 785 l 1,15,-1
 179 909 l 1,16,-1
 273 964 l 1,17,-1
 301 964 l 1,18,-1
 443 882 l 1,19,-1
 447 882 l 1,20,-1
 447 964 l 1,21,-1
 545 964 l 1,22,-1
 545 840 l 1,23,-1
 451 785 l 1,24,-1
 423 785 l 1,25,-1
 281 867 l 1,12,-1
EndSplineSet
EndChar

StartChar: Odieresis
Encoding: 214 214 143
Width: 715
GlyphClass: 2
Flags: W
LayerCount: 2
Fore
SplineSet
630 62 m 1,0,-1
 514 -5 l 1,1,-1
 201 -5 l 1,2,-1
 85 62 l 1,3,-1
 85 638 l 1,4,-1
 201 705 l 1,5,-1
 514 705 l 1,6,-1
 630 638 l 1,7,-1
 630 62 l 1,0,-1
225 585 m 1,8,-1
 225 115 l 1,9,-1
 490 115 l 1,10,-1
 490 585 l 1,11,-1
 225 585 l 1,8,-1
175 785 m 1,12,-1
 175 920 l 1,13,-1
 310 920 l 1,14,-1
 310 785 l 1,15,-1
 175 785 l 1,12,-1
414 785 m 1,16,-1
 414 920 l 1,17,-1
 549 920 l 1,18,-1
 549 785 l 1,19,-1
 414 785 l 1,16,-1
EndSplineSet
EndChar

StartChar: multiply
Encoding: 215 215 144
Width: 630
GlyphClass: 2
Flags: W
LayerCount: 2
Fore
SplineSet
150 520 m 1,0,-1
 315 355 l 1,1,-1
 480 520 l 1,2,-1
 575 425 l 1,3,-1
 410 260 l 1,4,-1
 575 95 l 1,5,-1
 480 0 l 1,6,-1
 315 165 l 1,7,-1
 150 0 l 1,8,-1
 55 95 l 1,9,-1
 220 260 l 1,10,-1
 55 425 l 1,11,-1
 150 520 l 1,0,-1
EndSplineSet
EndChar

StartChar: Oslash
Encoding: 216 216 145
Width: 715
GlyphClass: 2
Flags: W
LayerCount: 2
Fore
SplineSet
630 62 m 1,0,-1
 514 -5 l 1,1,-1
 201 -5 l 1,2,-1
 85 62 l 1,3,-1
 85 638 l 1,4,-1
 201 705 l 1,5,-1
 514 705 l 1,6,-1
 630 638 l 1,7,-1
 630 62 l 1,0,-1
274 115 m 1,8,-1
 490 115 l 1,9,-1
 490 475 l 1,10,-1
 274 115 l 1,8,-1
225 585 m 1,11,-1
 225 225 l 1,12,-1
 440 585 l 1,13,-1
 225 585 l 1,11,-1
EndSplineSet
EndChar

StartChar: Ugrave
Encoding: 217 217 146
Width: 715
GlyphClass: 2
Flags: W
LayerCount: 2
Fore
SplineSet
490 700 m 1,0,-1
 630 700 l 1,1,-1
 630 62 l 1,2,-1
 514 -5 l 1,3,-1
 201 -5 l 1,4,-1
 85 62 l 1,5,-1
 85 700 l 1,6,-1
 225 700 l 1,7,-1
 225 125 l 1,8,-1
 490 125 l 1,9,-1
 490 700 l 1,0,-1
345 913 m 1,10,-1
 439 785 l 1,11,-1
 319 785 l 1,12,-1
 175 913 l 1,13,-1
 345 913 l 1,10,-1
EndSplineSet
EndChar

StartChar: Uacute
Encoding: 218 218 147
Width: 715
GlyphClass: 2
Flags: W
LayerCount: 2
Fore
SplineSet
490 700 m 1,0,-1
 630 700 l 1,1,-1
 630 62 l 1,2,-1
 514 -5 l 1,3,-1
 201 -5 l 1,4,-1
 85 62 l 1,5,-1
 85 700 l 1,6,-1
 225 700 l 1,7,-1
 225 125 l 1,8,-1
 490 125 l 1,9,-1
 490 700 l 1,0,-1
280 785 m 1,10,-1
 374 913 l 1,11,-1
 544 913 l 1,12,-1
 400 785 l 1,13,-1
 280 785 l 1,10,-1
EndSplineSet
EndChar

StartChar: Ucircumflex
Encoding: 219 219 148
Width: 715
GlyphClass: 2
Flags: W
LayerCount: 2
Fore
SplineSet
490 700 m 1,0,-1
 630 700 l 1,1,-1
 630 62 l 1,2,-1
 514 -5 l 1,3,-1
 201 -5 l 1,4,-1
 85 62 l 1,5,-1
 85 700 l 1,6,-1
 225 700 l 1,7,-1
 225 125 l 1,8,-1
 490 125 l 1,9,-1
 490 700 l 1,0,-1
270 933 m 1,10,-1
 460 933 l 1,11,-1
 561 785 l 1,12,-1
 446 785 l 1,13,-1
 365 865 l 1,14,-1
 285 785 l 1,15,-1
 170 785 l 1,16,-1
 270 933 l 1,10,-1
EndSplineSet
EndChar

StartChar: Udieresis
Encoding: 220 220 149
Width: 715
GlyphClass: 2
Flags: W
LayerCount: 2
Fore
SplineSet
490 700 m 1,0,-1
 630 700 l 1,1,-1
 630 62 l 1,2,-1
 514 -5 l 1,3,-1
 201 -5 l 1,4,-1
 85 62 l 1,5,-1
 85 700 l 1,6,-1
 225 700 l 1,7,-1
 225 125 l 1,8,-1
 490 125 l 1,9,-1
 490 700 l 1,0,-1
175 785 m 1,10,-1
 175 920 l 1,11,-1
 310 920 l 1,12,-1
 310 785 l 1,13,-1
 175 785 l 1,10,-1
414 785 m 1,14,-1
 414 920 l 1,15,-1
 549 920 l 1,16,-1
 549 785 l 1,17,-1
 414 785 l 1,14,-1
EndSplineSet
EndChar

StartChar: Yacute
Encoding: 221 221 150
Width: 621
GlyphClass: 2
Flags: W
LayerCount: 2
Fore
SplineSet
240 0 m 1,0,-1
 240 299 l 1,1,-1
 15 700 l 1,2,-1
 167 700 l 1,3,-1
 309 438 l 1,4,-1
 311 438 l 1,5,-1
 454 700 l 1,6,-1
 606 700 l 1,7,-1
 380 298 l 1,8,-1
 380 0 l 1,9,-1
 240 0 l 1,0,-1
225 785 m 1,10,-1
 319 913 l 1,11,-1
 489 913 l 1,12,-1
 345 785 l 1,13,-1
 225 785 l 1,10,-1
EndSplineSet
EndChar

StartChar: Thorn
Encoding: 222 222 151
Width: 645
GlyphClass: 2
Flags: W
LayerCount: 2
Fore
SplineSet
85 0 m 1,0,-1
 85 730 l 1,1,-1
 225 730 l 1,2,-1
 225 602 l 1,3,-1
 454 602 l 1,4,-1
 570 535 l 1,5,-1
 570 208 l 1,6,-1
 454 141 l 1,7,-1
 225 141 l 1,8,-1
 225 0 l 1,9,-1
 85 0 l 1,0,-1
225 482 m 1,10,-1
 225 261 l 1,11,-1
 430 261 l 1,12,-1
 430 482 l 1,13,-1
 225 482 l 1,10,-1
EndSplineSet
EndChar

StartChar: germandbls
Encoding: 223 223 152
Width: 675
GlyphClass: 2
Flags: W
LayerCount: 2
Fore
SplineSet
25 302 m 1,0,-1
 25 422 l 1,1,-1
 115 422 l 1,2,-1
 115 633 l 1,3,-1
 231 700 l 1,4,-1
 454 700 l 1,5,-1
 570 633 l 1,6,-1
 570 413 l 1,7,-1
 496 370 l 1,8,-1
 600 311 l 1,9,-1
 600 67 l 1,10,-1
 484 0 l 1,11,-1
 318 0 l 1,12,-1
 318 120 l 1,13,-1
 460 120 l 1,14,-1
 460 302 l 1,15,-1
 318 302 l 1,16,-1
 318 422 l 1,17,-1
 430 422 l 1,18,-1
 430 580 l 1,19,-1
 255 580 l 1,20,-1
 255 -200 l 1,21,-1
 115 -200 l 1,22,-1
 115 302 l 1,23,-1
 25 302 l 1,0,-1
EndSplineSet
EndChar

StartChar: agrave
Encoding: 224 224 153
Width: 545
GlyphClass: 2
Flags: W
LayerCount: 2
Fore
SplineSet
192 197 m 1,0,-1
 192 110 l 1,1,-1
 333 110 l 1,2,-1
 333 197 l 1,3,-1
 192 197 l 1,0,-1
171 -5 m 1,4,-1
 55 62 l 1,5,-1
 55 235 l 1,6,-1
 171 302 l 1,7,-1
 333 302 l 1,8,-1
 333 383 l 1,9,-1
 105 383 l 1,10,-1
 105 500 l 1,11,-1
 354 500 l 1,12,-1
 470 433 l 1,13,-1
 470 -5 l 1,14,-1
 404 -5 l 1,15,-1
 333 36 l 1,16,-1
 262 -5 l 1,17,-1
 171 -5 l 1,4,-1
294 718 m 1,18,-1
 388 590 l 1,19,-1
 268 590 l 1,20,-1
 124 718 l 1,21,-1
 294 718 l 1,18,-1
EndSplineSet
EndChar

StartChar: aacute
Encoding: 225 225 154
Width: 545
GlyphClass: 2
Flags: W
LayerCount: 2
Fore
SplineSet
192 197 m 1,0,-1
 192 110 l 1,1,-1
 333 110 l 1,2,-1
 333 197 l 1,3,-1
 192 197 l 1,0,-1
171 -5 m 1,4,-1
 55 62 l 1,5,-1
 55 235 l 1,6,-1
 171 302 l 1,7,-1
 333 302 l 1,8,-1
 333 383 l 1,9,-1
 105 383 l 1,10,-1
 105 500 l 1,11,-1
 354 500 l 1,12,-1
 470 433 l 1,13,-1
 470 -5 l 1,14,-1
 404 -5 l 1,15,-1
 333 36 l 1,16,-1
 262 -5 l 1,17,-1
 171 -5 l 1,4,-1
165 590 m 1,18,-1
 259 718 l 1,19,-1
 429 718 l 1,20,-1
 285 590 l 1,21,-1
 165 590 l 1,18,-1
EndSplineSet
EndChar

StartChar: acircumflex
Encoding: 226 226 155
Width: 545
GlyphClass: 2
Flags: W
LayerCount: 2
Fore
SplineSet
192 197 m 1,0,-1
 192 110 l 1,1,-1
 333 110 l 1,2,-1
 333 197 l 1,3,-1
 192 197 l 1,0,-1
171 -5 m 1,4,-1
 55 62 l 1,5,-1
 55 235 l 1,6,-1
 171 302 l 1,7,-1
 333 302 l 1,8,-1
 333 383 l 1,9,-1
 105 383 l 1,10,-1
 105 500 l 1,11,-1
 354 500 l 1,12,-1
 470 433 l 1,13,-1
 470 -5 l 1,14,-1
 404 -5 l 1,15,-1
 333 36 l 1,16,-1
 262 -5 l 1,17,-1
 171 -5 l 1,4,-1
190 738 m 1,18,-1
 380 738 l 1,19,-1
 481 590 l 1,20,-1
 366 590 l 1,21,-1
 285 670 l 1,22,-1
 205 590 l 1,23,-1
 90 590 l 1,24,-1
 190 738 l 1,18,-1
EndSplineSet
EndChar

StartChar: atilde
Encoding: 227 227 156
Width: 545
GlyphClass: 2
Flags: W
LayerCount: 2
Fore
SplineSet
192 197 m 1,0,-1
 192 110 l 1,1,-1
 333 110 l 1,2,-1
 333 197 l 1,3,-1
 192 197 l 1,0,-1
171 -5 m 1,4,-1
 55 62 l 1,5,-1
 55 235 l 1,6,-1
 171 302 l 1,7,-1
 333 302 l 1,8,-1
 333 383 l 1,9,-1
 105 383 l 1,10,-1
 105 500 l 1,11,-1
 354 500 l 1,12,-1
 470 433 l 1,13,-1
 470 -5 l 1,14,-1
 404 -5 l 1,15,-1
 333 36 l 1,16,-1
 262 -5 l 1,17,-1
 171 -5 l 1,4,-1
192 667 m 1,18,-1
 188 667 l 1,19,-1
 188 585 l 1,20,-1
 90 585 l 1,21,-1
 90 709 l 1,22,-1
 184 764 l 1,23,-1
 212 764 l 1,24,-1
 354 682 l 1,25,-1
 358 682 l 1,26,-1
 358 764 l 1,27,-1
 456 764 l 1,28,-1
 456 640 l 1,29,-1
 362 585 l 1,30,-1
 334 585 l 1,31,-1
 192 667 l 1,18,-1
EndSplineSet
EndChar

StartChar: adieresis
Encoding: 228 228 157
Width: 546
GlyphClass: 2
Flags: W
LayerCount: 2
Fore
SplineSet
192 197 m 1,0,-1
 192 110 l 1,1,-1
 333 110 l 1,2,-1
 333 197 l 1,3,-1
 192 197 l 1,0,-1
171 -5 m 1,4,-1
 55 62 l 1,5,-1
 55 235 l 1,6,-1
 171 302 l 1,7,-1
 333 302 l 1,8,-1
 333 383 l 1,9,-1
 105 383 l 1,10,-1
 105 500 l 1,11,-1
 354 500 l 1,12,-1
 470 433 l 1,13,-1
 470 -5 l 1,14,-1
 404 -5 l 1,15,-1
 333 36 l 1,16,-1
 262 -5 l 1,17,-1
 171 -5 l 1,4,-1
97 595 m 1,18,-1
 97 730 l 1,19,-1
 232 730 l 1,20,-1
 232 595 l 1,21,-1
 97 595 l 1,18,-1
336 595 m 1,22,-1
 336 730 l 1,23,-1
 471 730 l 1,24,-1
 471 595 l 1,25,-1
 336 595 l 1,22,-1
EndSplineSet
EndChar

StartChar: aring
Encoding: 229 229 158
Width: 545
GlyphClass: 2
Flags: W
LayerCount: 2
Fore
SplineSet
192 197 m 1,0,-1
 192 110 l 1,1,-1
 333 110 l 1,2,-1
 333 197 l 1,3,-1
 192 197 l 1,0,-1
171 -5 m 1,4,-1
 55 62 l 1,5,-1
 55 235 l 1,6,-1
 171 302 l 1,7,-1
 333 302 l 1,8,-1
 333 383 l 1,9,-1
 105 383 l 1,10,-1
 105 500 l 1,11,-1
 354 500 l 1,12,-1
 470 433 l 1,13,-1
 470 -5 l 1,14,-1
 404 -5 l 1,15,-1
 333 36 l 1,16,-1
 262 -5 l 1,17,-1
 171 -5 l 1,4,-1
447 617 m 1,18,-1
 365 570 l 1,19,-1
 204 570 l 1,20,-1
 122 617 l 1,21,-1
 122 826 l 1,22,-1
 204 873 l 1,23,-1
 365 873 l 1,24,-1
 447 826 l 1,25,-1
 447 617 l 1,18,-1
227 778 m 1,26,-1
 227 665 l 1,27,-1
 342 665 l 1,28,-1
 342 778 l 1,29,-1
 227 778 l 1,26,-1
EndSplineSet
EndChar

StartChar: ae
Encoding: 230 230 159
Width: 823
GlyphClass: 2
Flags: W
LayerCount: 2
Fore
SplineSet
748 117 m 1,0,-1
 748 0 l 1,1,-1
 449 0 l 1,2,-1
 360 51 l 1,3,-1
 262 -5 l 1,4,-1
 171 -5 l 1,5,-1
 55 62 l 1,6,-1
 55 235 l 1,7,-1
 171 302 l 1,8,-1
 333 302 l 1,9,-1
 333 383 l 1,10,-1
 105 383 l 1,11,-1
 105 500 l 1,12,-1
 334 500 l 1,13,-1
 397 463 l 1,14,-1
 469 505 l 1,15,-1
 632 505 l 1,16,-1
 748 438 l 1,17,-1
 748 199 l 1,18,-1
 470 199 l 1,19,-1
 470 117 l 1,20,-1
 748 117 l 1,0,-1
192 197 m 1,21,-1
 192 110 l 1,22,-1
 333 110 l 1,23,-1
 333 197 l 1,24,-1
 192 197 l 1,21,-1
470 388 m 1,25,-1
 470 302 l 1,26,-1
 611 302 l 1,27,-1
 611 388 l 1,28,-1
 470 388 l 1,25,-1
EndSplineSet
EndChar

StartChar: ccedilla
Encoding: 231 231 160
Width: 515
GlyphClass: 2
Flags: W
LayerCount: 2
Fore
SplineSet
262 0 m 1,0,-1
 191 0 l 1,1,-1
 75 67 l 1,2,-1
 75 433 l 1,3,-1
 191 500 l 1,4,-1
 460 500 l 1,5,-1
 460 383 l 1,6,-1
 212 383 l 1,7,-1
 212 117 l 1,8,-1
 460 117 l 1,9,-1
 460 0 l 1,10,-1
 355 0 l 1,11,-1
 328 -47 l 1,12,-1
 394 -85 l 1,13,-1
 394 -179 l 1,14,-1
 308 -229 l 1,15,-1
 198 -229 l 1,16,-1
 198 -149 l 1,17,-1
 297 -149 l 1,18,-1
 297 -104 l 1,19,-1
 202 -104 l 1,20,-1
 262 0 l 1,0,-1
EndSplineSet
EndChar

StartChar: egrave
Encoding: 232 232 161
Width: 565
GlyphClass: 2
Flags: W
LayerCount: 2
Fore
SplineSet
490 117 m 1,0,-1
 490 0 l 1,1,-1
 191 0 l 1,2,-1
 75 67 l 1,3,-1
 75 438 l 1,4,-1
 191 505 l 1,5,-1
 374 505 l 1,6,-1
 490 438 l 1,7,-1
 490 199 l 1,8,-1
 212 199 l 1,9,-1
 212 117 l 1,10,-1
 490 117 l 1,0,-1
212 388 m 1,11,-1
 212 302 l 1,12,-1
 353 302 l 1,13,-1
 353 388 l 1,14,-1
 212 388 l 1,11,-1
305 718 m 1,15,-1
 399 590 l 1,16,-1
 279 590 l 1,17,-1
 135 718 l 1,18,-1
 305 718 l 1,15,-1
EndSplineSet
EndChar

StartChar: eacute
Encoding: 233 233 162
Width: 565
GlyphClass: 2
Flags: W
LayerCount: 2
Fore
SplineSet
490 117 m 1,0,-1
 490 0 l 1,1,-1
 191 0 l 1,2,-1
 75 67 l 1,3,-1
 75 438 l 1,4,-1
 191 505 l 1,5,-1
 374 505 l 1,6,-1
 490 438 l 1,7,-1
 490 199 l 1,8,-1
 212 199 l 1,9,-1
 212 117 l 1,10,-1
 490 117 l 1,0,-1
212 388 m 1,11,-1
 212 302 l 1,12,-1
 353 302 l 1,13,-1
 353 388 l 1,14,-1
 212 388 l 1,11,-1
195 590 m 1,15,-1
 289 718 l 1,16,-1
 459 718 l 1,17,-1
 315 590 l 1,18,-1
 195 590 l 1,15,-1
EndSplineSet
EndChar

StartChar: ecircumflex
Encoding: 234 234 163
Width: 565
GlyphClass: 2
Flags: W
LayerCount: 2
Fore
SplineSet
490 117 m 1,0,-1
 490 0 l 1,1,-1
 191 0 l 1,2,-1
 75 67 l 1,3,-1
 75 438 l 1,4,-1
 191 505 l 1,5,-1
 374 505 l 1,6,-1
 490 438 l 1,7,-1
 490 199 l 1,8,-1
 212 199 l 1,9,-1
 212 117 l 1,10,-1
 490 117 l 1,0,-1
212 388 m 1,11,-1
 212 302 l 1,12,-1
 353 302 l 1,13,-1
 353 388 l 1,14,-1
 212 388 l 1,11,-1
192 738 m 1,15,-1
 382 738 l 1,16,-1
 483 590 l 1,17,-1
 368 590 l 1,18,-1
 287 670 l 1,19,-1
 207 590 l 1,20,-1
 92 590 l 1,21,-1
 192 738 l 1,15,-1
EndSplineSet
EndChar

StartChar: edieresis
Encoding: 235 235 164
Width: 565
GlyphClass: 2
Flags: W
LayerCount: 2
Fore
SplineSet
490 117 m 1,0,-1
 490 0 l 1,1,-1
 191 0 l 1,2,-1
 75 67 l 1,3,-1
 75 438 l 1,4,-1
 191 505 l 1,5,-1
 374 505 l 1,6,-1
 490 438 l 1,7,-1
 490 199 l 1,8,-1
 212 199 l 1,9,-1
 212 117 l 1,10,-1
 490 117 l 1,0,-1
212 388 m 1,11,-1
 212 302 l 1,12,-1
 353 302 l 1,13,-1
 353 388 l 1,14,-1
 212 388 l 1,11,-1
103 595 m 1,15,-1
 103 730 l 1,16,-1
 238 730 l 1,17,-1
 238 595 l 1,18,-1
 103 595 l 1,15,-1
342 595 m 1,19,-1
 342 730 l 1,20,-1
 477 730 l 1,21,-1
 477 595 l 1,22,-1
 342 595 l 1,19,-1
EndSplineSet
EndChar

StartChar: igrave
Encoding: 236 236 165
Width: 287
GlyphClass: 2
Flags: W
LayerCount: 2
Fore
SplineSet
212 500 m 1,0,-1
 212 0 l 1,1,-1
 75 0 l 1,2,-1
 75 500 l 1,3,-1
 212 500 l 1,0,-1
130 718 m 1,4,-1
 224 590 l 1,5,-1
 104 590 l 1,6,-1
 -40 718 l 1,7,-1
 130 718 l 1,4,-1
EndSplineSet
EndChar

StartChar: iacute
Encoding: 237 237 166
Width: 287
GlyphClass: 2
Flags: W
LayerCount: 2
Fore
SplineSet
212 500 m 1,0,-1
 212 0 l 1,1,-1
 75 0 l 1,2,-1
 75 500 l 1,3,-1
 212 500 l 1,0,-1
63 590 m 1,4,-1
 157 718 l 1,5,-1
 327 718 l 1,6,-1
 183 590 l 1,7,-1
 63 590 l 1,4,-1
EndSplineSet
EndChar

StartChar: icircumflex
Encoding: 238 238 167
Width: 287
GlyphClass: 2
Flags: W
LayerCount: 2
Fore
SplineSet
212 500 m 1,0,-1
 212 0 l 1,1,-1
 75 0 l 1,2,-1
 75 500 l 1,3,-1
 212 500 l 1,0,-1
48 738 m 1,4,-1
 238 738 l 1,5,-1
 339 590 l 1,6,-1
 224 590 l 1,7,-1
 143 670 l 1,8,-1
 63 590 l 1,9,-1
 -52 590 l 1,10,-1
 48 738 l 1,4,-1
EndSplineSet
EndChar

StartChar: idieresis
Encoding: 239 239 168
Width: 287
GlyphClass: 2
Flags: W
LayerCount: 2
Fore
SplineSet
212 500 m 1,0,-1
 212 0 l 1,1,-1
 75 0 l 1,2,-1
 75 500 l 1,3,-1
 212 500 l 1,0,-1
-43 595 m 1,4,-1
 -43 730 l 1,5,-1
 92 730 l 1,6,-1
 92 595 l 1,7,-1
 -43 595 l 1,4,-1
196 595 m 1,8,-1
 196 730 l 1,9,-1
 331 730 l 1,10,-1
 331 595 l 1,11,-1
 196 595 l 1,8,-1
EndSplineSet
EndChar

StartChar: eth
Encoding: 240 240 169
Width: 645
GlyphClass: 2
Flags: W
LayerCount: 2
Fore
SplineSet
560 544 m 1,0,-1
 619 544 l 1,1,-1
 619 450 l 1,2,-1
 560 450 l 1,3,-1
 560 62 l 1,4,-1
 444 -5 l 1,5,-1
 201 -5 l 1,6,-1
 85 62 l 1,7,-1
 85 348 l 1,8,-1
 201 415 l 1,9,-1
 349 415 l 1,10,-1
 420 374 l 1,11,-1
 420 450 l 1,12,-1
 313 450 l 1,13,-1
 313 544 l 1,14,-1
 420 544 l 1,15,-1
 420 585 l 1,16,-1
 201 585 l 1,17,-1
 201 705 l 1,18,-1
 444 705 l 1,19,-1
 560 638 l 1,20,-1
 560 544 l 1,0,-1
420 115 m 1,21,-1
 420 295 l 1,22,-1
 225 295 l 1,23,-1
 225 115 l 1,24,-1
 420 115 l 1,21,-1
EndSplineSet
EndChar

StartChar: ntilde
Encoding: 241 241 170
Width: 595
GlyphClass: 2
Flags: W
LayerCount: 2
Fore
SplineSet
520 438 m 1,0,-1
 520 0 l 1,1,-1
 383 0 l 1,2,-1
 383 388 l 1,3,-1
 212 388 l 1,4,-1
 212 0 l 1,5,-1
 75 0 l 1,6,-1
 75 505 l 1,7,-1
 188 505 l 1,8,-1
 212 464 l 1,9,-1
 283 505 l 1,10,-1
 404 505 l 1,11,-1
 520 438 l 1,0,-1
222 667 m 1,12,-1
 218 667 l 1,13,-1
 218 585 l 1,14,-1
 120 585 l 1,15,-1
 120 709 l 1,16,-1
 214 764 l 1,17,-1
 242 764 l 1,18,-1
 384 682 l 1,19,-1
 388 682 l 1,20,-1
 388 764 l 1,21,-1
 486 764 l 1,22,-1
 486 640 l 1,23,-1
 392 585 l 1,24,-1
 364 585 l 1,25,-1
 222 667 l 1,12,-1
EndSplineSet
EndChar

StartChar: ograve
Encoding: 242 242 171
Width: 595
GlyphClass: 2
Flags: W
LayerCount: 2
Fore
SplineSet
520 62 m 1,0,-1
 404 -5 l 1,1,-1
 191 -5 l 1,2,-1
 75 62 l 1,3,-1
 75 438 l 1,4,-1
 191 505 l 1,5,-1
 404 505 l 1,6,-1
 520 438 l 1,7,-1
 520 62 l 1,0,-1
212 388 m 1,8,-1
 212 112 l 1,9,-1
 383 112 l 1,10,-1
 383 388 l 1,11,-1
 212 388 l 1,8,-1
315 718 m 1,12,-1
 409 590 l 1,13,-1
 289 590 l 1,14,-1
 145 718 l 1,15,-1
 315 718 l 1,12,-1
EndSplineSet
EndChar

StartChar: oacute
Encoding: 243 243 172
Width: 595
GlyphClass: 2
Flags: W
LayerCount: 2
Fore
SplineSet
520 62 m 1,0,-1
 404 -5 l 1,1,-1
 191 -5 l 1,2,-1
 75 62 l 1,3,-1
 75 438 l 1,4,-1
 191 505 l 1,5,-1
 404 505 l 1,6,-1
 520 438 l 1,7,-1
 520 62 l 1,0,-1
212 388 m 1,8,-1
 212 112 l 1,9,-1
 383 112 l 1,10,-1
 383 388 l 1,11,-1
 212 388 l 1,8,-1
195 590 m 1,12,-1
 289 718 l 1,13,-1
 459 718 l 1,14,-1
 315 590 l 1,15,-1
 195 590 l 1,12,-1
EndSplineSet
EndChar

StartChar: ocircumflex
Encoding: 244 244 173
Width: 595
GlyphClass: 2
Flags: W
LayerCount: 2
Fore
SplineSet
520 62 m 1,0,-1
 404 -5 l 1,1,-1
 191 -5 l 1,2,-1
 75 62 l 1,3,-1
 75 438 l 1,4,-1
 191 505 l 1,5,-1
 404 505 l 1,6,-1
 520 438 l 1,7,-1
 520 62 l 1,0,-1
212 388 m 1,8,-1
 212 112 l 1,9,-1
 383 112 l 1,10,-1
 383 388 l 1,11,-1
 212 388 l 1,8,-1
208 738 m 1,12,-1
 398 738 l 1,13,-1
 499 590 l 1,14,-1
 384 590 l 1,15,-1
 303 670 l 1,16,-1
 223 590 l 1,17,-1
 108 590 l 1,18,-1
 208 738 l 1,12,-1
EndSplineSet
EndChar

StartChar: otilde
Encoding: 245 245 174
Width: 595
GlyphClass: 2
Flags: W
LayerCount: 2
Fore
SplineSet
520 62 m 1,0,-1
 404 -5 l 1,1,-1
 191 -5 l 1,2,-1
 75 62 l 1,3,-1
 75 438 l 1,4,-1
 191 505 l 1,5,-1
 404 505 l 1,6,-1
 520 438 l 1,7,-1
 520 62 l 1,0,-1
212 388 m 1,8,-1
 212 112 l 1,9,-1
 383 112 l 1,10,-1
 383 388 l 1,11,-1
 212 388 l 1,8,-1
222 667 m 1,12,-1
 218 667 l 1,13,-1
 218 585 l 1,14,-1
 120 585 l 1,15,-1
 120 709 l 1,16,-1
 214 764 l 1,17,-1
 242 764 l 1,18,-1
 384 682 l 1,19,-1
 388 682 l 1,20,-1
 388 764 l 1,21,-1
 486 764 l 1,22,-1
 486 640 l 1,23,-1
 392 585 l 1,24,-1
 364 585 l 1,25,-1
 222 667 l 1,12,-1
EndSplineSet
EndChar

StartChar: odieresis
Encoding: 246 246 175
Width: 595
GlyphClass: 2
Flags: W
LayerCount: 2
Fore
SplineSet
520 62 m 1,0,-1
 404 -5 l 1,1,-1
 191 -5 l 1,2,-1
 75 62 l 1,3,-1
 75 438 l 1,4,-1
 191 505 l 1,5,-1
 404 505 l 1,6,-1
 520 438 l 1,7,-1
 520 62 l 1,0,-1
212 388 m 1,8,-1
 212 112 l 1,9,-1
 383 112 l 1,10,-1
 383 388 l 1,11,-1
 212 388 l 1,8,-1
115 595 m 1,12,-1
 115 730 l 1,13,-1
 250 730 l 1,14,-1
 250 595 l 1,15,-1
 115 595 l 1,12,-1
354 595 m 1,16,-1
 354 730 l 1,17,-1
 489 730 l 1,18,-1
 489 595 l 1,19,-1
 354 595 l 1,16,-1
EndSplineSet
EndChar

StartChar: divide
Encoding: 247 247 176
Width: 610
GlyphClass: 2
Flags: W
LayerCount: 2
Fore
SplineSet
565 327 m 1,0,-1
 565 203 l 1,1,-1
 45 203 l 1,2,-1
 45 327 l 1,3,-1
 565 327 l 1,0,-1
220 -31 m 1,4,-1
 220 139 l 1,5,-1
 390 139 l 1,6,-1
 390 -31 l 1,7,-1
 220 -31 l 1,4,-1
220 391 m 1,8,-1
 220 561 l 1,9,-1
 390 561 l 1,10,-1
 390 391 l 1,11,-1
 220 391 l 1,8,-1
EndSplineSet
EndChar

StartChar: oslash
Encoding: 248 248 177
Width: 595
GlyphClass: 2
Flags: W
LayerCount: 2
Fore
SplineSet
520 62 m 1,0,-1
 404 -5 l 1,1,-1
 191 -5 l 1,2,-1
 75 62 l 1,3,-1
 75 438 l 1,4,-1
 191 505 l 1,5,-1
 404 505 l 1,6,-1
 520 438 l 1,7,-1
 520 62 l 1,0,-1
253 112 m 1,8,-1
 383 112 l 1,9,-1
 383 301 l 1,10,-1
 253 112 l 1,8,-1
212 388 m 1,11,-1
 212 198 l 1,12,-1
 342 388 l 1,13,-1
 212 388 l 1,11,-1
EndSplineSet
EndChar

StartChar: ugrave
Encoding: 249 249 178
Width: 595
GlyphClass: 2
Flags: W
LayerCount: 2
Fore
SplineSet
75 62 m 1,0,-1
 75 500 l 1,1,-1
 212 500 l 1,2,-1
 212 112 l 1,3,-1
 383 112 l 1,4,-1
 383 500 l 1,5,-1
 520 500 l 1,6,-1
 520 -5 l 1,7,-1
 407 -5 l 1,8,-1
 383 36 l 1,9,-1
 312 -5 l 1,10,-1
 191 -5 l 1,11,-1
 75 62 l 1,0,-1
335 718 m 1,12,-1
 429 590 l 1,13,-1
 309 590 l 1,14,-1
 165 718 l 1,15,-1
 335 718 l 1,12,-1
EndSplineSet
EndChar

StartChar: uacute
Encoding: 250 250 179
Width: 595
GlyphClass: 2
Flags: W
LayerCount: 2
Fore
SplineSet
75 62 m 1,0,-1
 75 500 l 1,1,-1
 212 500 l 1,2,-1
 212 112 l 1,3,-1
 383 112 l 1,4,-1
 383 500 l 1,5,-1
 520 500 l 1,6,-1
 520 -5 l 1,7,-1
 407 -5 l 1,8,-1
 383 36 l 1,9,-1
 312 -5 l 1,10,-1
 191 -5 l 1,11,-1
 75 62 l 1,0,-1
205 590 m 1,12,-1
 299 718 l 1,13,-1
 469 718 l 1,14,-1
 325 590 l 1,15,-1
 205 590 l 1,12,-1
EndSplineSet
EndChar

StartChar: ucircumflex
Encoding: 251 251 180
Width: 595
GlyphClass: 2
Flags: W
LayerCount: 2
Fore
SplineSet
75 62 m 1,0,-1
 75 500 l 1,1,-1
 212 500 l 1,2,-1
 212 112 l 1,3,-1
 383 112 l 1,4,-1
 383 500 l 1,5,-1
 520 500 l 1,6,-1
 520 -5 l 1,7,-1
 407 -5 l 1,8,-1
 383 36 l 1,9,-1
 312 -5 l 1,10,-1
 191 -5 l 1,11,-1
 75 62 l 1,0,-1
208 738 m 1,12,-1
 398 738 l 1,13,-1
 499 590 l 1,14,-1
 384 590 l 1,15,-1
 303 670 l 1,16,-1
 223 590 l 1,17,-1
 108 590 l 1,18,-1
 208 738 l 1,12,-1
EndSplineSet
EndChar

StartChar: udieresis
Encoding: 252 252 181
Width: 595
GlyphClass: 2
Flags: W
LayerCount: 2
Fore
SplineSet
75 62 m 1,0,-1
 75 500 l 1,1,-1
 212 500 l 1,2,-1
 212 112 l 1,3,-1
 383 112 l 1,4,-1
 383 500 l 1,5,-1
 520 500 l 1,6,-1
 520 -5 l 1,7,-1
 407 -5 l 1,8,-1
 383 36 l 1,9,-1
 312 -5 l 1,10,-1
 191 -5 l 1,11,-1
 75 62 l 1,0,-1
115 595 m 1,12,-1
 115 730 l 1,13,-1
 250 730 l 1,14,-1
 250 595 l 1,15,-1
 115 595 l 1,12,-1
354 595 m 1,16,-1
 354 730 l 1,17,-1
 489 730 l 1,18,-1
 489 595 l 1,19,-1
 354 595 l 1,16,-1
EndSplineSet
EndChar

StartChar: yacute
Encoding: 253 253 182
Width: 545
GlyphClass: 2
Flags: W
LayerCount: 2
Fore
SplineSet
114 -200 m 1,0,-1
 206 35 l 1,1,-1
 15 500 l 1,2,-1
 152 500 l 1,3,-1
 275 206 l 1,4,-1
 277 206 l 1,5,-1
 393 500 l 1,6,-1
 530 500 l 1,7,-1
 249 -200 l 1,8,-1
 114 -200 l 1,0,-1
185 590 m 1,9,-1
 279 718 l 1,10,-1
 449 718 l 1,11,-1
 305 590 l 1,12,-1
 185 590 l 1,9,-1
EndSplineSet
EndChar

StartChar: thorn
Encoding: 254 254 183
Width: 585
GlyphClass: 2
Flags: W
LayerCount: 2
Fore
SplineSet
65 730 m 1,0,-1
 202 730 l 1,1,-1
 202 464 l 1,2,-1
 273 505 l 1,3,-1
 404 505 l 1,4,-1
 520 438 l 1,5,-1
 520 62 l 1,6,-1
 404 -5 l 1,7,-1
 273 -5 l 1,8,-1
 202 36 l 1,9,-1
 202 -200 l 1,10,-1
 65 -200 l 1,11,-1
 65 730 l 1,0,-1
202 388 m 1,12,-1
 202 112 l 1,13,-1
 383 112 l 1,14,-1
 383 388 l 1,15,-1
 202 388 l 1,12,-1
EndSplineSet
EndChar

StartChar: ydieresis
Encoding: 255 255 184
Width: 545
GlyphClass: 2
Flags: W
LayerCount: 2
Fore
SplineSet
114 -200 m 1,0,-1
 206 35 l 1,1,-1
 15 500 l 1,2,-1
 152 500 l 1,3,-1
 275 206 l 1,4,-1
 277 206 l 1,5,-1
 393 500 l 1,6,-1
 530 500 l 1,7,-1
 249 -200 l 1,8,-1
 114 -200 l 1,0,-1
95 595 m 1,9,-1
 95 730 l 1,10,-1
 230 730 l 1,11,-1
 230 595 l 1,12,-1
 95 595 l 1,9,-1
334 595 m 1,13,-1
 334 730 l 1,14,-1
 469 730 l 1,15,-1
 469 595 l 1,16,-1
 334 595 l 1,13,-1
EndSplineSet
EndChar

StartChar: hbar
Encoding: 295 295 185
Width: 605
GlyphClass: 2
Flags: W
LayerCount: 2
Fore
SplineSet
212 0 m 1,0,-1
 75 0 l 1,1,-1
 75 565 l 1,2,-1
 10 565 l 1,3,-1
 10 659 l 1,4,-1
 75 659 l 1,5,-1
 75 730 l 1,6,-1
 212 730 l 1,7,-1
 212 659 l 1,8,-1
 360 659 l 1,9,-1
 360 565 l 1,10,-1
 212 565 l 1,11,-1
 212 464 l 1,12,-1
 283 505 l 1,13,-1
 414 505 l 1,14,-1
 530 438 l 1,15,-1
 530 0 l 1,16,-1
 393 0 l 1,17,-1
 393 388 l 1,18,-1
 212 388 l 1,19,-1
 212 0 l 1,0,-1
EndSplineSet
EndChar

StartChar: itilde
Encoding: 297 297 187
Width: 287
GlyphClass: 2
Flags: W
LayerCount: 2
Fore
SplineSet
212 500 m 1,0,-1
 212 0 l 1,1,-1
 75 0 l 1,2,-1
 75 500 l 1,3,-1
 212 500 l 1,0,-1
63 667 m 1,4,-1
 59 667 l 1,5,-1
 59 585 l 1,6,-1
 -39 585 l 1,7,-1
 -39 709 l 1,8,-1
 55 764 l 1,9,-1
 83 764 l 1,10,-1
 225 682 l 1,11,-1
 229 682 l 1,12,-1
 229 764 l 1,13,-1
 327 764 l 1,14,-1
 327 640 l 1,15,-1
 233 585 l 1,16,-1
 205 585 l 1,17,-1
 63 667 l 1,4,-1
EndSplineSet
EndChar

StartChar: dotlessi
Encoding: 305 305 188
Width: 287
GlyphClass: 2
Flags: W
LayerCount: 2
Fore
SplineSet
212 500 m 1,0,-1
 212 0 l 1,1,-1
 75 0 l 1,2,-1
 75 500 l 1,3,-1
 212 500 l 1,0,-1
EndSplineSet
EndChar

StartChar: IJ
Encoding: 306 306 189
Width: 855
GlyphClass: 2
Flags: W
LayerCount: 2
Fore
SplineSet
85 0 m 1,0,-1
 85 700 l 1,1,-1
 225 700 l 1,2,-1
 225 0 l 1,3,-1
 85 0 l 1,0,-1
630 115 m 1,4,-1
 630 700 l 1,5,-1
 770 700 l 1,6,-1
 770 62 l 1,7,-1
 654 -5 l 1,8,-1
 441 -5 l 1,9,-1
 325 62 l 1,10,-1
 325 255 l 1,11,-1
 465 255 l 1,12,-1
 465 115 l 1,13,-1
 630 115 l 1,4,-1
EndSplineSet
EndChar

StartChar: ij
Encoding: 307 307 190
Width: 574
GlyphClass: 2
Flags: W
LayerCount: 2
Fore
SplineSet
212 500 m 1,0,-1
 212 0 l 1,1,-1
 75 0 l 1,2,-1
 75 500 l 1,3,-1
 212 500 l 1,0,-1
70 593 m 1,4,-1
 70 730 l 1,5,-1
 217 730 l 1,6,-1
 217 593 l 1,7,-1
 70 593 l 1,4,-1
357 593 m 1,8,-1
 357 730 l 1,9,-1
 504 730 l 1,10,-1
 504 593 l 1,11,-1
 357 593 l 1,8,-1
499 500 m 1,12,-1
 499 -133 l 1,13,-1
 383 -200 l 1,14,-1
 262 -200 l 1,15,-1
 262 -83 l 1,16,-1
 362 -83 l 1,17,-1
 362 500 l 1,18,-1
 499 500 l 1,12,-1
EndSplineSet
EndChar

StartChar: jcircumflex
Encoding: 309 309 192
Width: 287
GlyphClass: 2
Flags: W
LayerCount: 2
Fore
SplineSet
212 500 m 1,0,-1
 212 -133 l 1,1,-1
 96 -200 l 1,2,-1
 -25 -200 l 1,3,-1
 -25 -83 l 1,4,-1
 75 -83 l 1,5,-1
 75 500 l 1,6,-1
 212 500 l 1,0,-1
48 738 m 1,7,-1
 238 738 l 1,8,-1
 339 590 l 1,9,-1
 224 590 l 1,10,-1
 143 670 l 1,11,-1
 63 590 l 1,12,-1
 -52 590 l 1,13,-1
 48 738 l 1,7,-1
EndSplineSet
EndChar

StartChar: kcommaaccent
Encoding: 311 311 193
Width: 551
GlyphClass: 2
Flags: W
LayerCount: 2
Fore
SplineSet
212 730 m 1,0,-1
 212 299 l 1,1,-1
 214 299 l 1,2,-1
 369 500 l 1,3,-1
 526 500 l 1,4,-1
 347 277 l 1,5,-1
 556 0 l 1,6,-1
 397 0 l 1,7,-1
 267 177 l 1,8,-1
 212 108 l 1,9,-1
 212 0 l 1,10,-1
 75 0 l 1,11,-1
 75 730 l 1,12,-1
 212 730 l 1,0,-1
209 -367 m 1,13,-1
 209 -55 l 1,14,-1
 361 -55 l 1,15,-1
 361 -121 l 1,16,-1
 275 -367 l 1,17,-1
 209 -367 l 1,13,-1
EndSplineSet
EndChar

StartChar: kgreenlandic
Encoding: 312 312 194
Width: 551
GlyphClass: 2
Flags: W
LayerCount: 2
Fore
SplineSet
212 500 m 1,0,-1
 212 299 l 1,1,-1
 214 299 l 1,2,-1
 369 500 l 1,3,-1
 526 500 l 1,4,-1
 347 277 l 1,5,-1
 556 0 l 1,6,-1
 397 0 l 1,7,-1
 267 177 l 1,8,-1
 212 108 l 1,9,-1
 212 0 l 1,10,-1
 75 0 l 1,11,-1
 75 500 l 1,12,-1
 212 500 l 1,0,-1
EndSplineSet
EndChar

StartChar: Ldotaccent
Encoding: 319 319 195
Width: 500
GlyphClass: 2
Flags: W
LayerCount: 2
Fore
SplineSet
85 0 m 1,0,-1
 85 700 l 1,1,-1
 225 700 l 1,2,-1
 225 120 l 1,3,-1
 464 120 l 1,4,-1
 464 0 l 1,5,-1
 85 0 l 1,0,-1
319 234 m 1,6,-1
 319 368 l 1,7,-1
 453 368 l 1,8,-1
 453 234 l 1,9,-1
 319 234 l 1,6,-1
EndSplineSet
EndChar

StartChar: ldot
Encoding: 320 320 196
Width: 483
GlyphClass: 2
Flags: W
LayerCount: 2
Fore
SplineSet
191 0 m 1,0,-1
 75 67 l 1,1,-1
 75 730 l 1,2,-1
 212 730 l 1,3,-1
 212 117 l 1,4,-1
 312 117 l 1,5,-1
 312 0 l 1,6,-1
 191 0 l 1,0,-1
309 234 m 1,7,-1
 309 368 l 1,8,-1
 443 368 l 1,9,-1
 443 234 l 1,10,-1
 309 234 l 1,7,-1
EndSplineSet
EndChar

StartChar: Lslash
Encoding: 321 321 197
Width: 489
GlyphClass: 2
Flags: W
LayerCount: 2
Fore
SplineSet
15 378 m 1,0,-1
 85 396 l 1,1,-1
 85 700 l 1,2,-1
 225 700 l 1,3,-1
 225 433 l 1,4,-1
 321 458 l 1,5,-1
 321 358 l 1,6,-1
 225 333 l 1,7,-1
 225 120 l 1,8,-1
 464 120 l 1,9,-1
 464 0 l 1,10,-1
 85 0 l 1,11,-1
 85 296 l 1,12,-1
 15 278 l 1,13,-1
 15 378 l 1,0,-1
EndSplineSet
EndChar

StartChar: lslash
Encoding: 322 322 198
Width: 327
GlyphClass: 2
Flags: W
LayerCount: 2
Fore
SplineSet
15 378 m 1,0,-1
 75 394 l 1,1,-1
 75 730 l 1,2,-1
 212 730 l 1,3,-1
 212 431 l 1,4,-1
 301 455 l 1,5,-1
 301 355 l 1,6,-1
 212 331 l 1,7,-1
 212 117 l 1,8,-1
 312 117 l 1,9,-1
 312 0 l 1,10,-1
 191 0 l 1,11,-1
 75 67 l 1,12,-1
 75 294 l 1,13,-1
 15 278 l 1,14,-1
 15 378 l 1,0,-1
EndSplineSet
EndChar

StartChar: nacute
Encoding: 324 324 200
Width: 595
GlyphClass: 2
Flags: W
LayerCount: 2
Fore
SplineSet
520 438 m 1,0,-1
 520 0 l 1,1,-1
 383 0 l 1,2,-1
 383 388 l 1,3,-1
 212 388 l 1,4,-1
 212 0 l 1,5,-1
 75 0 l 1,6,-1
 75 505 l 1,7,-1
 188 505 l 1,8,-1
 212 464 l 1,9,-1
 283 505 l 1,10,-1
 404 505 l 1,11,-1
 520 438 l 1,0,-1
165 590 m 1,12,-1
 259 718 l 1,13,-1
 429 718 l 1,14,-1
 285 590 l 1,15,-1
 165 590 l 1,12,-1
EndSplineSet
EndChar

StartChar: OE
Encoding: 338 338 201
Width: 954
GlyphClass: 2
Flags: W
LayerCount: 2
Fore
SplineSet
630 300 m 1,0,-1
 630 120 l 1,1,-1
 909 120 l 1,2,-1
 909 0 l 1,3,-1
 201 0 l 1,4,-1
 85 67 l 1,5,-1
 85 633 l 1,6,-1
 201 700 l 1,7,-1
 909 700 l 1,8,-1
 909 580 l 1,9,-1
 630 580 l 1,10,-1
 630 420 l 1,11,-1
 849 420 l 1,12,-1
 849 300 l 1,13,-1
 630 300 l 1,0,-1
225 580 m 1,14,-1
 225 120 l 1,15,-1
 490 120 l 1,16,-1
 490 580 l 1,17,-1
 225 580 l 1,14,-1
EndSplineSet
EndChar

StartChar: oe
Encoding: 339 339 202
Width: 873
GlyphClass: 2
Flags: W
LayerCount: 2
Fore
SplineSet
798 117 m 1,0,-1
 798 0 l 1,1,-1
 519 0 l 1,2,-1
 456 36 l 1,3,-1
 384 -5 l 1,4,-1
 191 -5 l 1,5,-1
 75 62 l 1,6,-1
 75 438 l 1,7,-1
 191 505 l 1,8,-1
 384 505 l 1,9,-1
 451 466 l 1,10,-1
 519 505 l 1,11,-1
 682 505 l 1,12,-1
 798 438 l 1,13,-1
 798 199 l 1,14,-1
 520 199 l 1,15,-1
 520 117 l 1,16,-1
 798 117 l 1,0,-1
212 388 m 1,17,-1
 212 112 l 1,18,-1
 383 112 l 1,19,-1
 383 388 l 1,20,-1
 212 388 l 1,17,-1
520 388 m 1,21,-1
 520 302 l 1,22,-1
 661 302 l 1,23,-1
 661 388 l 1,24,-1
 520 388 l 1,21,-1
EndSplineSet
EndChar

StartChar: Rcommaaccent
Encoding: 342 342 204
Width: 665
GlyphClass: 2
Flags: W
LayerCount: 2
Fore
SplineSet
616 0 m 1,0,-1
 462 0 l 1,1,-1
 312 264 l 1,2,-1
 225 264 l 1,3,-1
 225 0 l 1,4,-1
 85 0 l 1,5,-1
 85 700 l 1,6,-1
 464 700 l 1,7,-1
 580 633 l 1,8,-1
 580 331 l 1,9,-1
 464 264 l 1,10,-1
 616 0 l 1,0,-1
225 580 m 1,11,-1
 225 384 l 1,12,-1
 440 384 l 1,13,-1
 440 580 l 1,14,-1
 225 580 l 1,11,-1
256 -367 m 1,15,-1
 256 -55 l 1,16,-1
 408 -55 l 1,17,-1
 408 -121 l 1,18,-1
 322 -367 l 1,19,-1
 256 -367 l 1,15,-1
EndSplineSet
EndChar

StartChar: rcommaaccent
Encoding: 343 343 205
Width: 409
GlyphClass: 2
Flags: W
LayerCount: 2
Fore
SplineSet
384 383 m 1,0,-1
 212 383 l 1,1,-1
 212 0 l 1,2,-1
 75 0 l 1,3,-1
 75 500 l 1,4,-1
 188 500 l 1,5,-1
 212 459 l 1,6,-1
 283 500 l 1,7,-1
 384 500 l 1,8,-1
 384 383 l 1,0,-1
128 -367 m 1,9,-1
 128 -55 l 1,10,-1
 280 -55 l 1,11,-1
 280 -121 l 1,12,-1
 194 -367 l 1,13,-1
 128 -367 l 1,9,-1
EndSplineSet
EndChar

StartChar: rcaron
Encoding: 345 345 207
Width: 409
GlyphClass: 2
Flags: W
LayerCount: 2
Fore
SplineSet
384 383 m 1,0,-1
 212 383 l 1,1,-1
 212 0 l 1,2,-1
 75 0 l 1,3,-1
 75 500 l 1,4,-1
 188 500 l 1,5,-1
 212 459 l 1,6,-1
 283 500 l 1,7,-1
 384 500 l 1,8,-1
 384 383 l 1,0,-1
300 590 m 1,9,-1
 110 590 l 1,10,-1
 9 738 l 1,11,-1
 124 738 l 1,12,-1
 205 658 l 1,13,-1
 285 738 l 1,14,-1
 400 738 l 1,15,-1
 300 590 l 1,9,-1
EndSplineSet
EndChar

StartChar: Scaron
Encoding: 352 352 208
Width: 655
GlyphClass: 2
Flags: W
LayerCount: 2
Fore
SplineSet
85 355 m 1,0,-1
 85 638 l 1,1,-1
 201 705 l 1,2,-1
 454 705 l 1,3,-1
 570 638 l 1,4,-1
 570 505 l 1,5,-1
 430 505 l 1,6,-1
 430 585 l 1,7,-1
 225 585 l 1,8,-1
 225 418 l 1,9,-1
 454 418 l 1,10,-1
 570 351 l 1,11,-1
 570 62 l 1,12,-1
 454 -5 l 1,13,-1
 191 -5 l 1,14,-1
 75 62 l 1,15,-1
 75 195 l 1,16,-1
 215 195 l 1,17,-1
 215 115 l 1,18,-1
 430 115 l 1,19,-1
 430 288 l 1,20,-1
 201 288 l 1,21,-1
 85 355 l 1,0,-1
422 785 m 1,22,-1
 232 785 l 1,23,-1
 131 933 l 1,24,-1
 246 933 l 1,25,-1
 327 853 l 1,26,-1
 407 933 l 1,27,-1
 522 933 l 1,28,-1
 422 785 l 1,22,-1
EndSplineSet
EndChar

StartChar: scaron
Encoding: 353 353 209
Width: 552
GlyphClass: 2
Flags: W
LayerCount: 2
Fore
SplineSet
471 246 m 1,0,-1
 471 67 l 1,1,-1
 355 0 l 1,2,-1
 75 0 l 1,3,-1
 75 117 l 1,4,-1
 334 117 l 1,5,-1
 334 194 l 1,6,-1
 191 194 l 1,7,-1
 75 261 l 1,8,-1
 75 433 l 1,9,-1
 191 500 l 1,10,-1
 461 500 l 1,11,-1
 461 383 l 1,12,-1
 212 383 l 1,13,-1
 212 313 l 1,14,-1
 355 313 l 1,15,-1
 471 246 l 1,0,-1
377 590 m 1,16,-1
 187 590 l 1,17,-1
 86 738 l 1,18,-1
 201 738 l 1,19,-1
 282 658 l 1,20,-1
 362 738 l 1,21,-1
 477 738 l 1,22,-1
 377 590 l 1,16,-1
EndSplineSet
EndChar

StartChar: Ydieresis
Encoding: 376 376 210
Width: 621
GlyphClass: 2
Flags: W
LayerCount: 2
Fore
SplineSet
240 0 m 1,0,-1
 240 299 l 1,1,-1
 15 700 l 1,2,-1
 167 700 l 1,3,-1
 309 438 l 1,4,-1
 311 438 l 1,5,-1
 454 700 l 1,6,-1
 606 700 l 1,7,-1
 380 298 l 1,8,-1
 380 0 l 1,9,-1
 240 0 l 1,0,-1
128 785 m 1,10,-1
 128 920 l 1,11,-1
 263 920 l 1,12,-1
 263 785 l 1,13,-1
 128 785 l 1,10,-1
367 785 m 1,14,-1
 367 920 l 1,15,-1
 502 920 l 1,16,-1
 502 785 l 1,17,-1
 367 785 l 1,14,-1
EndSplineSet
EndChar

StartChar: Zcaron
Encoding: 381 381 211
Width: 595
GlyphClass: 2
Flags: W
LayerCount: 2
Fore
SplineSet
65 580 m 1,0,-1
 65 700 l 1,1,-1
 540 700 l 1,2,-1
 540 610 l 1,3,-1
 225 122 l 1,4,-1
 225 120 l 1,5,-1
 540 120 l 1,6,-1
 540 0 l 1,7,-1
 45 0 l 1,8,-1
 45 90 l 1,9,-1
 360 578 l 1,10,-1
 360 580 l 1,11,-1
 65 580 l 1,0,-1
412 785 m 1,12,-1
 222 785 l 1,13,-1
 121 933 l 1,14,-1
 236 933 l 1,15,-1
 317 853 l 1,16,-1
 397 933 l 1,17,-1
 512 933 l 1,18,-1
 412 785 l 1,12,-1
EndSplineSet
EndChar

StartChar: zcaron
Encoding: 382 382 212
Width: 476
GlyphClass: 2
Flags: W
LayerCount: 2
Fore
SplineSet
35 96 m 1,0,-1
 251 381 l 1,1,-1
 251 383 l 1,2,-1
 45 383 l 1,3,-1
 45 500 l 1,4,-1
 431 500 l 1,5,-1
 431 404 l 1,6,-1
 215 119 l 1,7,-1
 215 117 l 1,8,-1
 431 117 l 1,9,-1
 431 0 l 1,10,-1
 35 0 l 1,11,-1
 35 96 l 1,0,-1
341 590 m 1,12,-1
 151 590 l 1,13,-1
 50 738 l 1,14,-1
 165 738 l 1,15,-1
 246 658 l 1,16,-1
 326 738 l 1,17,-1
 441 738 l 1,18,-1
 341 590 l 1,12,-1
EndSplineSet
EndChar

StartChar: florin
Encoding: 402 402 213
Width: 409
GlyphClass: 2
Flags: W
LayerCount: 2
Fore
SplineSet
127 -82 m 1,0,-1
 127 383 l 1,1,-1
 35 383 l 1,2,-1
 35 500 l 1,3,-1
 127 500 l 1,4,-1
 127 663 l 1,5,-1
 243 730 l 1,6,-1
 374 730 l 1,7,-1
 374 613 l 1,8,-1
 264 613 l 1,9,-1
 264 500 l 1,10,-1
 374 500 l 1,11,-1
 374 383 l 1,12,-1
 264 383 l 1,13,-1
 264 -132 l 1,14,-1
 148 -199 l 1,15,-1
 17 -199 l 1,16,-1
 17 -82 l 1,17,-1
 127 -82 l 1,0,-1
EndSplineSet
EndChar

StartChar: circumflex
Encoding: 710 710 214
Width: 531
GlyphClass: 2
Flags: W
LayerCount: 2
Fore
SplineSet
170 738 m 1,0,-1
 360 738 l 1,1,-1
 461 590 l 1,2,-1
 346 590 l 1,3,-1
 265 670 l 1,4,-1
 185 590 l 1,5,-1
 70 590 l 1,6,-1
 170 738 l 1,0,-1
EndSplineSet
EndChar

StartChar: caron
Encoding: 711 711 215
Width: 531
GlyphClass: 2
Flags: W
LayerCount: 2
Fore
SplineSet
362 590 m 1,0,-1
 172 590 l 1,1,-1
 71 738 l 1,2,-1
 186 738 l 1,3,-1
 267 658 l 1,4,-1
 347 738 l 1,5,-1
 462 738 l 1,6,-1
 362 590 l 1,0,-1
EndSplineSet
EndChar

StartChar: breve
Encoding: 728 728 216
Width: 529
GlyphClass: 2
Flags: W
LayerCount: 2
Fore
SplineSet
322 756 m 1,0,-1
 427 756 l 1,1,-1
 427 627 l 1,2,-1
 345 580 l 1,3,-1
 184 580 l 1,4,-1
 102 627 l 1,5,-1
 102 756 l 1,6,-1
 207 756 l 1,7,-1
 207 665 l 1,8,-1
 322 665 l 1,9,-1
 322 756 l 1,0,-1
EndSplineSet
EndChar

StartChar: dotaccent
Encoding: 729 729 217
Width: 350
GlyphClass: 2
Flags: W
LayerCount: 2
Fore
SplineSet
80 591 m 1,0,-1
 80 781 l 1,1,-1
 270 781 l 1,2,-1
 270 591 l 1,3,-1
 80 591 l 1,0,-1
EndSplineSet
EndChar

StartChar: ring
Encoding: 730 730 218
Width: 529
GlyphClass: 2
Flags: W
LayerCount: 2
Fore
SplineSet
427 617 m 1,0,-1
 345 570 l 1,1,-1
 184 570 l 1,2,-1
 102 617 l 1,3,-1
 102 826 l 1,4,-1
 184 873 l 1,5,-1
 345 873 l 1,6,-1
 427 826 l 1,7,-1
 427 617 l 1,0,-1
207 778 m 1,8,-1
 207 665 l 1,9,-1
 322 665 l 1,10,-1
 322 778 l 1,11,-1
 207 778 l 1,8,-1
EndSplineSet
EndChar

StartChar: ogonek
Encoding: 731 731 219
Width: 520
GlyphClass: 2
Flags: W
LayerCount: 2
Fore
SplineSet
267 0 m 1,0,-1
 267 -116 l 1,1,-1
 360 -116 l 1,2,-1
 360 -213 l 1,3,-1
 276 -213 l 1,4,-1
 160 -146 l 1,5,-1
 160 0 l 1,6,-1
 267 0 l 1,0,-1
EndSplineSet
EndChar

StartChar: tilde
Encoding: 732 732 220
Width: 506
GlyphClass: 2
Flags: W
LayerCount: 2
Fore
SplineSet
172 667 m 1,0,-1
 168 667 l 1,1,-1
 168 585 l 1,2,-1
 70 585 l 1,3,-1
 70 709 l 1,4,-1
 164 764 l 1,5,-1
 192 764 l 1,6,-1
 334 682 l 1,7,-1
 338 682 l 1,8,-1
 338 764 l 1,9,-1
 436 764 l 1,10,-1
 436 640 l 1,11,-1
 342 585 l 1,12,-1
 314 585 l 1,13,-1
 172 667 l 1,0,-1
EndSplineSet
EndChar

StartChar: hungarumlaut
Encoding: 733 733 221
Width: 580
GlyphClass: 2
Flags: W
LayerCount: 2
Fore
SplineSet
66 590 m 1,0,-1
 160 718 l 1,1,-1
 330 718 l 1,2,-1
 186 590 l 1,3,-1
 66 590 l 1,0,-1
285 590 m 1,4,-1
 379 718 l 1,5,-1
 549 718 l 1,6,-1
 405 590 l 1,7,-1
 285 590 l 1,4,-1
EndSplineSet
EndChar

StartChar: endash
Encoding: 8211 8211 222
Width: 706
GlyphClass: 2
Flags: W
LayerCount: 2
Fore
SplineSet
65 198 m 1,0,-1
 65 325 l 1,1,-1
 641 325 l 1,2,-1
 641 198 l 1,3,-1
 65 198 l 1,0,-1
EndSplineSet
EndChar

StartChar: emdash
Encoding: 8212 8212 223
Width: 984
GlyphClass: 2
Flags: W
LayerCount: 2
Fore
SplineSet
65 198 m 1,0,-1
 65 325 l 1,1,-1
 919 325 l 1,2,-1
 919 198 l 1,3,-1
 65 198 l 1,0,-1
EndSplineSet
EndChar

StartChar: quoteleft
Encoding: 8216 8216 224
Width: 360
GlyphClass: 2
Flags: W
LayerCount: 2
Fore
SplineSet
275 730 m 1,0,-1
 275 340 l 1,1,-1
 85 340 l 1,2,-1
 85 422 l 1,3,-1
 193 730 l 1,4,-1
 275 730 l 1,0,-1
EndSplineSet
EndChar

StartChar: quoteright
Encoding: 8217 8217 225
Width: 360
GlyphClass: 2
Flags: W
LayerCount: 2
Fore
SplineSet
85 340 m 1,0,-1
 85 730 l 1,1,-1
 275 730 l 1,2,-1
 275 648 l 1,3,-1
 167 340 l 1,4,-1
 85 340 l 1,0,-1
EndSplineSet
EndChar

StartChar: quotesinglbase
Encoding: 8218 8218 226
Width: 380
GlyphClass: 2
Flags: W
LayerCount: 2
Fore
SplineSet
95 -200 m 1,0,-1
 95 190 l 1,1,-1
 285 190 l 1,2,-1
 285 108 l 1,3,-1
 177 -200 l 1,4,-1
 95 -200 l 1,0,-1
EndSplineSet
EndChar

StartChar: quotedblleft
Encoding: 8220 8220 227
Width: 640
GlyphClass: 2
Flags: W
LayerCount: 2
Fore
SplineSet
555 730 m 1,0,-1
 555 340 l 1,1,-1
 365 340 l 1,2,-1
 365 422 l 1,3,-1
 473 730 l 1,4,-1
 555 730 l 1,0,-1
275 730 m 1,5,-1
 275 340 l 1,6,-1
 85 340 l 1,7,-1
 85 422 l 1,8,-1
 193 730 l 1,9,-1
 275 730 l 1,5,-1
EndSplineSet
EndChar

StartChar: quotedblright
Encoding: 8221 8221 228
Width: 640
GlyphClass: 2
Flags: W
LayerCount: 2
Fore
SplineSet
85 340 m 1,0,-1
 85 730 l 1,1,-1
 275 730 l 1,2,-1
 275 648 l 1,3,-1
 167 340 l 1,4,-1
 85 340 l 1,0,-1
365 340 m 1,5,-1
 365 730 l 1,6,-1
 555 730 l 1,7,-1
 555 648 l 1,8,-1
 447 340 l 1,9,-1
 365 340 l 1,5,-1
EndSplineSet
EndChar

StartChar: quotedblbase
Encoding: 8222 8222 229
Width: 660
GlyphClass: 2
Flags: W
LayerCount: 2
Fore
SplineSet
95 -200 m 1,0,-1
 95 190 l 1,1,-1
 285 190 l 1,2,-1
 285 108 l 1,3,-1
 177 -200 l 1,4,-1
 95 -200 l 1,0,-1
375 -200 m 1,5,-1
 375 190 l 1,6,-1
 565 190 l 1,7,-1
 565 108 l 1,8,-1
 457 -200 l 1,9,-1
 375 -200 l 1,5,-1
EndSplineSet
EndChar

StartChar: dagger
Encoding: 8224 8224 230
Width: 613
GlyphClass: 2
Flags: W
LayerCount: 2
Fore
SplineSet
359 424 m 1,0,-1
 369 -200 l 1,1,-1
 244 -200 l 1,2,-1
 254 424 l 1,3,-1
 55 414 l 1,4,-1
 55 539 l 1,5,-1
 254 529 l 1,6,-1
 244 731 l 1,7,-1
 369 731 l 1,8,-1
 359 529 l 1,9,-1
 558 539 l 1,10,-1
 558 414 l 1,11,-1
 359 424 l 1,0,-1
EndSplineSet
EndChar

StartChar: daggerdbl
Encoding: 8225 8225 231
Width: 613
GlyphClass: 2
Flags: W
LayerCount: 2
Fore
SplineSet
366 266 m 1,0,-1
 359 107 l 1,1,-1
 558 117 l 1,2,-1
 558 -8 l 1,3,-1
 359 2 l 1,4,-1
 369 -200 l 1,5,-1
 244 -200 l 1,6,-1
 254 2 l 1,7,-1
 55 -8 l 1,8,-1
 55 117 l 1,9,-1
 254 107 l 1,10,-1
 247 266 l 1,11,-1
 254 424 l 1,12,-1
 55 414 l 1,13,-1
 55 539 l 1,14,-1
 254 529 l 1,15,-1
 244 731 l 1,16,-1
 369 731 l 1,17,-1
 359 529 l 1,18,-1
 558 539 l 1,19,-1
 558 414 l 1,20,-1
 359 424 l 1,21,-1
 366 266 l 1,0,-1
EndSplineSet
EndChar

StartChar: bullet
Encoding: 8226 8226 232
Width: 570
GlyphClass: 2
Flags: W
LayerCount: 2
Fore
SplineSet
475 224 m 1,0,-1
 359 157 l 1,1,-1
 211 157 l 1,2,-1
 95 224 l 1,3,-1
 95 470 l 1,4,-1
 211 537 l 1,5,-1
 359 537 l 1,6,-1
 475 470 l 1,7,-1
 475 224 l 1,0,-1
EndSplineSet
EndChar

StartChar: ellipsis
Encoding: 8230 8230 233
Width: 1042
GlyphClass: 2
Flags: W
LayerCount: 2
Fore
SplineSet
95 0 m 1,0,-1
 95 190 l 1,1,-1
 285 190 l 1,2,-1
 285 0 l 1,3,-1
 95 0 l 1,0,-1
426 0 m 1,4,-1
 426 190 l 1,5,-1
 616 190 l 1,6,-1
 616 0 l 1,7,-1
 426 0 l 1,4,-1
757 0 m 1,8,-1
 757 190 l 1,9,-1
 947 190 l 1,10,-1
 947 0 l 1,11,-1
 757 0 l 1,8,-1
EndSplineSet
EndChar

StartChar: perthousand
Encoding: 8240 8240 234
Width: 1406
GlyphClass: 2
Flags: W
LayerCount: 2
Fore
SplineSet
440 424 m 1,0,-1
 324 357 l 1,1,-1
 191 357 l 1,2,-1
 75 424 l 1,3,-1
 75 643 l 1,4,-1
 191 710 l 1,5,-1
 324 710 l 1,6,-1
 440 643 l 1,7,-1
 440 424 l 1,0,-1
196 599 m 1,8,-1
 196 468 l 1,9,-1
 319 468 l 1,10,-1
 319 599 l 1,11,-1
 196 599 l 1,8,-1
692 710 m 1,12,-1
 822 710 l 1,13,-1
 309 -10 l 1,14,-1
 179 -10 l 1,15,-1
 692 710 l 1,12,-1
561 276 m 1,16,-1
 677 343 l 1,17,-1
 810 343 l 1,18,-1
 926 276 l 1,19,-1
 926 57 l 1,20,-1
 810 -10 l 1,21,-1
 677 -10 l 1,22,-1
 561 57 l 1,23,-1
 561 276 l 1,16,-1
805 101 m 1,24,-1
 805 232 l 1,25,-1
 682 232 l 1,26,-1
 682 101 l 1,27,-1
 805 101 l 1,24,-1
996 276 m 1,28,-1
 1112 343 l 1,29,-1
 1245 343 l 1,30,-1
 1361 276 l 1,31,-1
 1361 57 l 1,32,-1
 1245 -10 l 1,33,-1
 1112 -10 l 1,34,-1
 996 57 l 1,35,-1
 996 276 l 1,28,-1
1240 101 m 1,36,-1
 1240 232 l 1,37,-1
 1117 232 l 1,38,-1
 1117 101 l 1,39,-1
 1240 101 l 1,36,-1
EndSplineSet
EndChar

StartChar: guilsinglleft
Encoding: 8249 8249 235
Width: 430
GlyphClass: 2
Flags: W
LayerCount: 2
Fore
SplineSet
345 137 m 1,0,-1
 345 0 l 1,1,-1
 85 190 l 1,2,-1
 85 312 l 1,3,-1
 345 502 l 1,4,-1
 345 365 l 1,5,-1
 182 252 l 1,6,-1
 182 251 l 1,7,-1
 345 137 l 1,0,-1
EndSplineSet
EndChar

StartChar: guilsinglright
Encoding: 8250 8250 236
Width: 430
GlyphClass: 2
Flags: W
LayerCount: 2
Fore
SplineSet
85 0 m 1,0,-1
 85 137 l 1,1,-1
 248 251 l 1,2,-1
 248 252 l 1,3,-1
 85 365 l 1,4,-1
 85 502 l 1,5,-1
 345 312 l 1,6,-1
 345 190 l 1,7,-1
 85 0 l 1,0,-1
EndSplineSet
EndChar

StartChar: fraction
Encoding: 8260 8260 237
Width: 653
GlyphClass: 2
Flags: W
LayerCount: 2
Fore
SplineSet
518 710 m 1,0,-1
 648 710 l 1,1,-1
 135 -10 l 1,2,-1
 5 -10 l 1,3,-1
 518 710 l 1,0,-1
EndSplineSet
EndChar

StartChar: Euro
Encoding: 8364 8364 238
Width: 684
GlyphClass: 2
Flags: W
LayerCount: 2
Fore
SplineSet
455 471 m 1,0,-1
 401 377 l 1,1,-1
 242 377 l 1,2,-1
 242 323 l 1,3,-1
 370 323 l 1,4,-1
 316 229 l 1,5,-1
 242 229 l 1,6,-1
 242 115 l 1,7,-1
 469 115 l 1,8,-1
 469 205 l 1,9,-1
 609 205 l 1,10,-1
 609 62 l 1,11,-1
 493 -5 l 1,12,-1
 218 -5 l 1,13,-1
 102 62 l 1,14,-1
 102 229 l 1,15,-1
 25 229 l 1,16,-1
 25 323 l 1,17,-1
 102 323 l 1,18,-1
 102 377 l 1,19,-1
 25 377 l 1,20,-1
 25 471 l 1,21,-1
 102 471 l 1,22,-1
 102 638 l 1,23,-1
 218 705 l 1,24,-1
 493 705 l 1,25,-1
 609 638 l 1,26,-1
 609 495 l 1,27,-1
 469 495 l 1,28,-1
 469 585 l 1,29,-1
 242 585 l 1,30,-1
 242 471 l 1,31,-1
 455 471 l 1,0,-1
EndSplineSet
EndChar

StartChar: trademark
Encoding: 8482 8482 239
Width: 851
GlyphClass: 2
Flags: W
LayerCount: 2
Fore
SplineSet
678 326 m 1,0,-1
 678 497 l 1,1,-1
 676 497 l 1,2,-1
 607 326 l 1,3,-1
 531 326 l 1,4,-1
 464 497 l 1,5,-1
 462 497 l 1,6,-1
 462 326 l 1,7,-1
 373 326 l 1,8,-1
 373 700 l 1,9,-1
 478 700 l 1,10,-1
 570 469 l 1,11,-1
 572 469 l 1,12,-1
 662 700 l 1,13,-1
 766 700 l 1,14,-1
 766 326 l 1,15,-1
 678 326 l 1,0,-1
248 611 m 1,16,-1
 248 326 l 1,17,-1
 158 326 l 1,18,-1
 158 611 l 1,19,-1
 65 611 l 1,20,-1
 65 700 l 1,21,-1
 340 700 l 1,22,-1
 340 611 l 1,23,-1
 248 611 l 1,16,-1
EndSplineSet
EndChar

StartChar: partialdiff
Encoding: 8706 8706 240
Width: 645
GlyphClass: 2
Flags: W
LayerCount: 2
Fore
SplineSet
420 585 m 1,0,-1
 201 585 l 1,1,-1
 201 705 l 1,2,-1
 444 705 l 1,3,-1
 560 638 l 1,4,-1
 560 62 l 1,5,-1
 444 -5 l 1,6,-1
 201 -5 l 1,7,-1
 85 62 l 1,8,-1
 85 348 l 1,9,-1
 201 415 l 1,10,-1
 349 415 l 1,11,-1
 420 374 l 1,12,-1
 420 585 l 1,0,-1
420 115 m 1,13,-1
 420 295 l 1,14,-1
 225 295 l 1,15,-1
 225 115 l 1,16,-1
 420 115 l 1,13,-1
EndSplineSet
EndChar

StartChar: minus
Encoding: 8722 8722 241
Width: 610
GlyphClass: 2
Flags: W
LayerCount: 2
Fore
SplineSet
565 327 m 1,0,-1
 565 193 l 1,1,-1
 45 193 l 1,2,-1
 45 327 l 1,3,-1
 565 327 l 1,0,-1
EndSplineSet
EndChar

StartChar: infinity
Encoding: 8734 8734 242
Width: 900
GlyphClass: 2
Flags: W
LayerCount: 2
Fore
SplineSet
225 398 m 1,0,-1
 225 223 l 1,1,-1
 380 223 l 1,2,-1
 380 398 l 1,3,-1
 225 398 l 1,0,-1
520 398 m 1,4,-1
 520 223 l 1,5,-1
 675 223 l 1,6,-1
 675 398 l 1,7,-1
 520 398 l 1,4,-1
815 170 m 1,8,-1
 699 103 l 1,9,-1
 566 103 l 1,10,-1
 450 170 l 1,11,-1
 334 103 l 1,12,-1
 201 103 l 1,13,-1
 85 170 l 1,14,-1
 85 451 l 1,15,-1
 201 518 l 1,16,-1
 334 518 l 1,17,-1
 450 451 l 1,18,-1
 566 518 l 1,19,-1
 699 518 l 1,20,-1
 815 451 l 1,21,-1
 815 170 l 1,8,-1
EndSplineSet
EndChar

StartChar: approxequal
Encoding: 8776 8776 243
Width: 732
GlyphClass: 2
Flags: W
LayerCount: 2
Fore
SplineSet
277 112 m 1,0,-1
 202 112 l 1,1,-1
 202 30 l 1,2,-1
 85 30 l 1,3,-1
 85 162 l 1,4,-1
 201 229 l 1,5,-1
 314 229 l 1,6,-1
 455 147 l 1,7,-1
 530 147 l 1,8,-1
 530 229 l 1,9,-1
 647 229 l 1,10,-1
 647 97 l 1,11,-1
 531 30 l 1,12,-1
 418 30 l 1,13,-1
 277 112 l 1,0,-1
277 348 m 1,14,-1
 202 348 l 1,15,-1
 202 266 l 1,16,-1
 85 266 l 1,17,-1
 85 398 l 1,18,-1
 201 465 l 1,19,-1
 314 465 l 1,20,-1
 455 383 l 1,21,-1
 530 383 l 1,22,-1
 530 465 l 1,23,-1
 647 465 l 1,24,-1
 647 333 l 1,25,-1
 531 266 l 1,26,-1
 418 266 l 1,27,-1
 277 348 l 1,14,-1
EndSplineSet
EndChar

StartChar: notequal
Encoding: 8800 8800 244
Width: 690
GlyphClass: 2
Flags: W
LayerCount: 2
Fore
SplineSet
605 426 m 1,0,-1
 605 302 l 1,1,-1
 441 302 l 1,2,-1
 359 198 l 1,3,-1
 605 198 l 1,4,-1
 605 74 l 1,5,-1
 262 74 l 1,6,-1
 195 -11 l 1,7,-1
 85 -11 l 1,8,-1
 152 74 l 1,9,-1
 85 74 l 1,10,-1
 85 198 l 1,11,-1
 249 198 l 1,12,-1
 331 302 l 1,13,-1
 85 302 l 1,14,-1
 85 426 l 1,15,-1
 428 426 l 1,16,-1
 495 511 l 1,17,-1
 605 511 l 1,18,-1
 538 426 l 1,19,-1
 605 426 l 1,0,-1
EndSplineSet
EndChar

StartChar: lessequal
Encoding: 8804 8804 245
Width: 690
GlyphClass: 2
Flags: W
LayerCount: 2
Fore
SplineSet
605 579 m 1,0,-1
 605 451 l 1,1,-1
 248 371 l 1,2,-1
 248 369 l 1,3,-1
 605 289 l 1,4,-1
 605 161 l 1,5,-1
 85 291 l 1,6,-1
 85 449 l 1,7,-1
 605 579 l 1,0,-1
605 124 m 1,8,-1
 605 0 l 1,9,-1
 85 0 l 1,10,-1
 85 124 l 1,11,-1
 605 124 l 1,8,-1
EndSplineSet
EndChar

StartChar: greaterequal
Encoding: 8805 8805 246
Width: 690
GlyphClass: 2
Flags: W
LayerCount: 2
Fore
SplineSet
85 451 m 1,0,-1
 85 579 l 1,1,-1
 605 449 l 1,2,-1
 605 291 l 1,3,-1
 85 161 l 1,4,-1
 85 289 l 1,5,-1
 442 369 l 1,6,-1
 442 371 l 1,7,-1
 85 451 l 1,0,-1
85 0 m 1,8,-1
 85 124 l 1,9,-1
 605 124 l 1,10,-1
 605 0 l 1,11,-1
 85 0 l 1,8,-1
EndSplineSet
EndChar

StartChar: a.alt
Encoding: 57345 57345 247
Width: 595
GlyphClass: 2
Flags: W
LayerCount: 2
Fore
SplineSet
383 112 m 1,0,-1
 383 388 l 1,1,-1
 212 388 l 1,2,-1
 212 112 l 1,3,-1
 383 112 l 1,0,-1
520 505 m 1,4,-1
 520 -5 l 1,5,-1
 454 -5 l 1,6,-1
 383 36 l 1,7,-1
 312 -5 l 1,8,-1
 191 -5 l 1,9,-1
 75 62 l 1,10,-1
 75 438 l 1,11,-1
 191 505 l 1,12,-1
 312 505 l 1,13,-1
 383 464 l 1,14,-1
 454 505 l 1,15,-1
 520 505 l 1,4,-1
EndSplineSet
EndChar

StartChar: g.alt
Encoding: 57346 57346 248
Width: 605
GlyphClass: 2
Flags: W
LayerCount: 2
Fore
SplineSet
530 -133 m 1,0,-1
 414 -200 l 1,1,-1
 142 -200 l 1,2,-1
 142 -83 l 1,3,-1
 393 -83 l 1,4,-1
 393 56 l 1,5,-1
 322 15 l 1,6,-1
 191 15 l 1,7,-1
 75 82 l 1,8,-1
 75 438 l 1,9,-1
 191 505 l 1,10,-1
 322 505 l 1,11,-1
 393 464 l 1,12,-1
 464 505 l 1,13,-1
 530 505 l 1,14,-1
 530 -133 l 1,0,-1
393 132 m 1,15,-1
 393 388 l 1,16,-1
 212 388 l 1,17,-1
 212 132 l 1,18,-1
 393 132 l 1,15,-1
EndSplineSet
EndChar

StartChar: l.alt
Encoding: 57347 57347 249
Width: 287
GlyphClass: 2
Flags: W
LayerCount: 2
Fore
SplineSet
212 0 m 1,0,-1
 75 0 l 1,1,-1
 75 730 l 1,2,-1
 212 730 l 1,3,-1
 212 0 l 1,0,-1
EndSplineSet
EndChar

StartChar: dotlessj
Encoding: 63166 63166 250
Width: 287
GlyphClass: 2
Flags: W
LayerCount: 2
Fore
SplineSet
212 500 m 1,0,-1
 212 -133 l 1,1,-1
 96 -200 l 1,2,-1
 -25 -200 l 1,3,-1
 -25 -83 l 1,4,-1
 75 -83 l 1,5,-1
 75 500 l 1,6,-1
 212 500 l 1,0,-1
EndSplineSet
EndChar

StartChar: commaaccent
Encoding: 63171 63171 251
Width: 352
GlyphClass: 2
Flags: W
LayerCount: 2
Fore
SplineSet
100 -367 m 1,0,-1
 100 -55 l 1,1,-1
 252 -55 l 1,2,-1
 252 -121 l 1,3,-1
 166 -367 l 1,4,-1
 100 -367 l 1,0,-1
EndSplineSet
EndChar

StartChar: madslug
Encoding: 63488 63488 252
Width: 896
GlyphClass: 2
Flags: W
LayerCount: 2
Fore
SplineSet
650 51 m 1,0,1
 554 -9 554 -9 447 -9 c 0,2,3
 295 -9 295 -9 187.5 99 c 128,-1,4
 80 207 80 207 80 361 c 0,5,6
 80 458 80 458 123.5 534.5 c 128,-1,7
 167 611 167 611 215 611 c 128,-1,8
 263 611 263 611 263 560 c 0,9,10
 263 527 263 527 233.5 397 c 128,-1,11
 204 267 204 267 204 265 c 0,12,13
 204 254 204 254 222 254 c 128,-1,14
 240 254 240 254 278.5 263 c 128,-1,15
 317 272 317 272 321 280 c 0,16,17
 321 282 321 282 336 348 c 128,-1,18
 351 414 351 414 360 456 c 0,19,20
 380 557 380 557 380 592.5 c 128,-1,21
 380 628 380 628 348 648.5 c 128,-1,22
 316 669 316 669 267 669 c 1,23,-1
 248 667 l 1,24,-1
 246 670 l 1,25,26
 340 730 340 730 447 730 c 0,27,28
 601 730 601 730 708.5 622 c 128,-1,29
 816 514 816 514 816 360 c 0,30,31
 816 263 816 263 772.5 186.5 c 128,-1,32
 729 110 729 110 681 110 c 128,-1,33
 633 110 633 110 633 161 c 0,34,35
 633 194 633 194 662.5 324 c 128,-1,36
 692 454 692 454 692 455 c 0,37,38
 692 467 692 467 674 467 c 128,-1,39
 656 467 656 467 617.5 458 c 128,-1,40
 579 449 579 449 575 441 c 0,41,42
 575 439 575 439 560 373 c 128,-1,43
 545 307 545 307 536 265 c 0,44,45
 516 164 516 164 516 128.5 c 128,-1,46
 516 93 516 93 548 72.5 c 128,-1,47
 580 52 580 52 629 52 c 1,48,-1
 648 53 l 1,49,-1
 650 51 l 1,0,1
476 234 m 1,50,51
 489 287 489 287 511 390.5 c 128,-1,52
 533 494 533 494 533 502.5 c 128,-1,53
 533 511 533 511 515.5 511 c 128,-1,54
 498 511 498 511 465.5 504 c 128,-1,55
 433 497 433 497 420 487 c 1,56,57
 407 434 407 434 385 330.5 c 128,-1,58
 363 227 363 227 363 218 c 128,-1,59
 363 209 363 209 380 209 c 128,-1,60
 397 209 397 209 430 216.5 c 128,-1,61
 463 224 463 224 476 234 c 1,50,51
EndSplineSet
EndChar

StartChar: apple
Encoding: 63743 63743 253
Width: 858
GlyphClass: 2
Flags: W
LayerCount: 2
Fore
SplineSet
154 107 m 1,0,1
 80 235 80 235 80 351 c 128,-1,2
 80 467 80 467 133.5 542.5 c 128,-1,3
 187 618 187 618 279 618 c 0,4,5
 314 618 314 618 367 603 c 128,-1,6
 420 588 420 588 438.5 588 c 128,-1,7
 457 588 457 588 508 605 c 128,-1,8
 559 622 559 622 595 622 c 0,9,10
 655 622 655 622 702 590 c 1,11,12
 732 567 732 567 754 540 c 1,13,14
 709 501 709 501 686.5 465 c 128,-1,15
 664 429 664 429 664 371.5 c 128,-1,16
 664 314 664 314 698 265 c 128,-1,17
 732 216 732 216 778 202 c 1,18,19
 757 138 757 138 716 77 c 0,20,21
 651 -21 651 -21 587 -21 c 0,22,23
 561 -21 561 -21 518 -5 c 128,-1,24
 475 11 475 11 443.5 11 c 128,-1,25
 412 11 412 11 370 -6 c 128,-1,26
 328 -23 328 -23 304 -23 c 0,27,28
 227 -23 227 -23 154 107 c 1,0,1
589 790 m 0,29,30
 589 713 589 713 528 652 c 0,31,32
 504 628 504 628 484.5 620 c 128,-1,33
 465 612 465 612 422 608 c 1,34,35
 424 773 424 773 586 811 c 1,36,37
 589 802 589 802 589 790 c 0,29,30
EndSplineSet
EndChar

StartChar: fi
Encoding: 64257 64257 254
Width: 696
GlyphClass: 2
Flags: W
LayerCount: 2
Fore
SplineSet
35 383 m 1,0,-1
 35 500 l 1,1,-1
 127 500 l 1,2,-1
 127 663 l 1,3,-1
 243 730 l 1,4,-1
 626 730 l 1,5,-1
 626 613 l 1,6,-1
 264 613 l 1,7,-1
 264 500 l 1,8,-1
 404 500 l 1,9,-1
 404 383 l 1,10,-1
 264 383 l 1,11,-1
 264 0 l 1,12,-1
 127 0 l 1,13,-1
 127 383 l 1,14,-1
 35 383 l 1,0,-1
621 500 m 1,15,-1
 621 0 l 1,16,-1
 484 0 l 1,17,-1
 484 500 l 1,18,-1
 621 500 l 1,15,-1
EndSplineSet
EndChar

StartChar: fl
Encoding: 64258 64258 255
Width: 736
GlyphClass: 2
Flags: W
LayerCount: 2
Fore
SplineSet
600 0 m 1,0,-1
 484 67 l 1,1,-1
 484 613 l 1,2,-1
 264 613 l 1,3,-1
 264 500 l 1,4,-1
 404 500 l 1,5,-1
 404 383 l 1,6,-1
 264 383 l 1,7,-1
 264 0 l 1,8,-1
 127 0 l 1,9,-1
 127 383 l 1,10,-1
 35 383 l 1,11,-1
 35 500 l 1,12,-1
 127 500 l 1,13,-1
 127 663 l 1,14,-1
 243 730 l 1,15,-1
 621 730 l 1,16,-1
 621 117 l 1,17,-1
 721 117 l 1,18,-1
 721 0 l 1,19,-1
 600 0 l 1,0,-1
EndSplineSet
EndChar

StartChar: ffi
Encoding: 64259 64259 256
Width: 1105
GlyphClass: 2
Flags: W
LayerCount: 2
Fore
SplineSet
264 383 m 1,0,-1
 264 0 l 1,1,-1
 127 0 l 1,2,-1
 127 383 l 1,3,-1
 35 383 l 1,4,-1
 35 500 l 1,5,-1
 127 500 l 1,6,-1
 127 663 l 1,7,-1
 243 730 l 1,8,-1
 424 730 l 1,9,-1
 424 613 l 1,10,-1
 264 613 l 1,11,-1
 264 500 l 1,12,-1
 516 500 l 1,13,-1
 516 663 l 1,14,-1
 632 730 l 1,15,-1
 1035 730 l 1,16,-1
 1035 613 l 1,17,-1
 653 613 l 1,18,-1
 653 500 l 1,19,-1
 813 500 l 1,20,-1
 813 383 l 1,21,-1
 653 383 l 1,22,-1
 653 0 l 1,23,-1
 516 0 l 1,24,-1
 516 383 l 1,25,-1
 264 383 l 1,0,-1
1030 500 m 1,26,-1
 1030 0 l 1,27,-1
 893 0 l 1,28,-1
 893 500 l 1,29,-1
 1030 500 l 1,26,-1
EndSplineSet
EndChar

StartChar: ffl
Encoding: 64260 64260 257
Width: 1145
GlyphClass: 2
Flags: W
LayerCount: 2
Fore
SplineSet
1009 0 m 1,0,-1
 893 67 l 1,1,-1
 893 613 l 1,2,-1
 673 613 l 1,3,-1
 673 500 l 1,4,-1
 803 500 l 1,5,-1
 803 383 l 1,6,-1
 673 383 l 1,7,-1
 673 0 l 1,8,-1
 536 0 l 1,9,-1
 536 383 l 1,10,-1
 264 383 l 1,11,-1
 264 0 l 1,12,-1
 127 0 l 1,13,-1
 127 383 l 1,14,-1
 35 383 l 1,15,-1
 35 500 l 1,16,-1
 127 500 l 1,17,-1
 127 663 l 1,18,-1
 243 730 l 1,19,-1
 434 730 l 1,20,-1
 434 613 l 1,21,-1
 264 613 l 1,22,-1
 264 500 l 1,23,-1
 536 500 l 1,24,-1
 536 663 l 1,25,-1
 652 730 l 1,26,-1
 1030 730 l 1,27,-1
 1030 117 l 1,28,-1
 1130 117 l 1,29,-1
 1130 0 l 1,30,-1
 1009 0 l 1,0,-1
EndSplineSet
EndChar

StartChar: st
Encoding: 64262 64262 258
Width: 940
GlyphClass: 2
Flags: W
LayerCount: 2
Fore
SplineSet
471 246 m 1,0,-1
 471 67 l 1,1,-1
 355 0 l 1,2,-1
 75 0 l 1,3,-1
 75 117 l 1,4,-1
 334 117 l 1,5,-1
 334 194 l 1,6,-1
 191 194 l 1,7,-1
 75 261 l 1,8,-1
 75 433 l 1,9,-1
 191 500 l 1,10,-1
 638 500 l 1,11,-1
 638 584 l 1,12,-1
 775 663 l 1,13,-1
 775 500 l 1,14,-1
 885 500 l 1,15,-1
 885 383 l 1,16,-1
 775 383 l 1,17,-1
 775 117 l 1,18,-1
 885 117 l 1,19,-1
 885 0 l 1,20,-1
 754 0 l 1,21,-1
 638 67 l 1,22,-1
 638 383 l 1,23,-1
 212 383 l 1,24,-1
 212 313 l 1,25,-1
 355 313 l 1,26,-1
 471 246 l 1,0,-1
EndSplineSet
EndChar

StartChar: fj
Encoding: 64263 64263 259
Width: 696
GlyphClass: 2
Flags: W
LayerCount: 2
Fore
SplineSet
621 500 m 1,0,-1
 621 -133 l 1,1,-1
 505 -200 l 1,2,-1
 384 -200 l 1,3,-1
 384 -83 l 1,4,-1
 484 -83 l 1,5,-1
 484 500 l 1,6,-1
 621 500 l 1,0,-1
35 383 m 1,7,-1
 35 500 l 1,8,-1
 127 500 l 1,9,-1
 127 663 l 1,10,-1
 243 730 l 1,11,-1
 626 730 l 1,12,-1
 626 613 l 1,13,-1
 264 613 l 1,14,-1
 264 500 l 1,15,-1
 374 500 l 1,16,-1
 374 383 l 1,17,-1
 264 383 l 1,18,-1
 264 0 l 1,19,-1
 127 0 l 1,20,-1
 127 383 l 1,21,-1
 35 383 l 1,7,-1
EndSplineSet
EndChar

StartChar: ct
Encoding: 64264 64264 260
Width: 908
GlyphClass: 2
Flags: W
LayerCount: 2
Fore
SplineSet
212 383 m 1,0,-1
 212 117 l 1,1,-1
 460 117 l 1,2,-1
 460 0 l 1,3,-1
 191 0 l 1,4,-1
 75 67 l 1,5,-1
 75 433 l 1,6,-1
 191 500 l 1,7,-1
 606 500 l 1,8,-1
 606 584 l 1,9,-1
 743 663 l 1,10,-1
 743 500 l 1,11,-1
 853 500 l 1,12,-1
 853 383 l 1,13,-1
 743 383 l 1,14,-1
 743 117 l 1,15,-1
 853 117 l 1,16,-1
 853 0 l 1,17,-1
 722 0 l 1,18,-1
 606 67 l 1,19,-1
 606 383 l 1,20,-1
 212 383 l 1,0,-1
EndSplineSet
EndChar

StartChar: grave.cap
Encoding: 65539 -1 261
Width: 500
GlyphClass: 2
Flags: W
LayerCount: 2
Fore
SplineSet
335 908 m 1,0,-1
 429 780 l 1,1,-1
 309 780 l 1,2,-1
 165 908 l 1,3,-1
 335 908 l 1,0,-1
EndSplineSet
EndChar

StartChar: acute.cap
Encoding: 65540 -1 262
Width: 500
GlyphClass: 2
Flags: W
LayerCount: 2
Fore
SplineSet
165 780 m 1,0,-1
 259 908 l 1,1,-1
 429 908 l 1,2,-1
 285 780 l 1,3,-1
 165 780 l 1,0,-1
EndSplineSet
EndChar

StartChar: caron.cap
Encoding: 65541 -1 263
Width: 531
GlyphClass: 2
Flags: W
LayerCount: 2
Fore
SplineSet
362 780 m 1,0,-1
 172 780 l 1,1,-1
 71 928 l 1,2,-1
 186 928 l 1,3,-1
 267 848 l 1,4,-1
 347 928 l 1,5,-1
 462 928 l 1,6,-1
 362 780 l 1,0,-1
EndSplineSet
EndChar

StartChar: circumflex.cap
Encoding: 65542 -1 264
Width: 531
GlyphClass: 2
Flags: W
LayerCount: 2
Fore
SplineSet
170 928 m 1,0,-1
 360 928 l 1,1,-1
 461 780 l 1,2,-1
 346 780 l 1,3,-1
 265 860 l 1,4,-1
 185 780 l 1,5,-1
 70 780 l 1,6,-1
 170 928 l 1,0,-1
EndSplineSet
EndChar

StartChar: ring.cap
Encoding: 65543 -1 265
Width: 529
GlyphClass: 2
Flags: W
LayerCount: 2
Fore
SplineSet
427 807 m 1,0,-1
 345 760 l 1,1,-1
 184 760 l 1,2,-1
 102 807 l 1,3,-1
 102 1016 l 1,4,-1
 184 1063 l 1,5,-1
 345 1063 l 1,6,-1
 427 1016 l 1,7,-1
 427 807 l 1,0,-1
207 968 m 1,8,-1
 207 855 l 1,9,-1
 322 855 l 1,10,-1
 322 968 l 1,11,-1
 207 968 l 1,8,-1
EndSplineSet
EndChar

StartChar: dieresis.cap
Encoding: 65544 -1 266
Width: 544
GlyphClass: 2
Flags: W
LayerCount: 2
Fore
SplineSet
80 785 m 1,0,-1
 80 920 l 1,1,-1
 215 920 l 1,2,-1
 215 785 l 1,3,-1
 80 785 l 1,0,-1
319 785 m 1,4,-1
 319 920 l 1,5,-1
 454 920 l 1,6,-1
 454 785 l 1,7,-1
 319 785 l 1,4,-1
EndSplineSet
EndChar

StartChar: tilde.cap
Encoding: 65545 -1 267
Width: 506
GlyphClass: 2
Flags: W
LayerCount: 2
Fore
SplineSet
172 857 m 1,0,-1
 168 857 l 1,1,-1
 168 775 l 1,2,-1
 70 775 l 1,3,-1
 70 899 l 1,4,-1
 164 954 l 1,5,-1
 192 954 l 1,6,-1
 334 872 l 1,7,-1
 338 872 l 1,8,-1
 338 954 l 1,9,-1
 436 954 l 1,10,-1
 436 830 l 1,11,-1
 342 775 l 1,12,-1
 314 775 l 1,13,-1
 172 857 l 1,0,-1
EndSplineSet
EndChar
